SplineFontDB: 3.0
FontName: WikiFont-Glyphs
FullName: WikiFont-Glyphs
FamilyName: WikiFont
Weight: Regular
Copyright: Modified BSD License
Version: 1.000;PS 001.000;hotconv 1.0.70;makeotf.lib2.5.58329 DEVELOPMENT
ItalicAngle: 0
UnderlinePosition: -25
UnderlineWidth: 50
Ascent: 1638
Descent: 410
sfntRevision: 0x00010000
LayerCount: 2
Layer: 0 1 "Back"  1
Layer: 1 1 "Fore"  0
XUID: [1021 957 1964333243 10930374]
FSType: 8
OS2Version: 3
OS2_WeightWidthSlopeOnly: 0
OS2_UseTypoMetrics: 1
CreationTime: 1403913858
ModificationTime: 1403939474
PfmFamily: 81
TTFWeight: 400
TTFWidth: 5
LineGap: 0
VLineGap: 0
Panose: 0 0 5 0 0 0 0 0 0 0
OS2TypoAscent: 1400
OS2TypoAOffset: 0
OS2TypoDescent: -512
OS2TypoDOffset: 0
OS2TypoLinegap: 546
OS2WinAscent: 1946
OS2WinAOffset: 0
OS2WinDescent: 512
OS2WinDOffset: 0
HheadAscent: 1946
HheadAOffset: 0
HheadDescent: -512
HheadDOffset: 0
OS2SubXSize: 1331
OS2SubYSize: 1228
OS2SubXOff: 0
OS2SubYOff: 153
OS2SupXSize: 1331
OS2SupYSize: 1228
OS2SupXOff: 0
OS2SupYOff: 716
OS2StrikeYSize: 50
OS2StrikeYPos: 450
OS2Vendor: 'UKWN'
OS2CodePages: 00000001.00000000
OS2UnicodeRanges: 00000000.00000000.00000000.00000000
MarkAttachClasses: 1
DEI: 91125
ShortTable: maxp 16
  1
  0
  103
  108
  16
  0
  0
  2
  0
  1
  1
  0
  64
  0
  0
  0
EndShort
LangName: 1033 "" "" "Regular" "1.000;UKWN;WikiFont-Glyphs" "" "Version 1.000;PS 001.000;hotconv 1.0.70;makeotf.lib2.5.58329 DEVELOPMENT" "" "" "" "Mun May Tee" "" "" "http://munmay.com" "" "" "" "WikiFont" "Glyphs" 
GaspTable: 1 65535 2 0
Encoding: UnicodeBmp
UnicodeInterp: none
NameList: AGL For New Fonts
DisplaySize: -48
AntiAlias: 1
FitToEm: 1
WinInfo: 52 26 10
BeginPrivate: 0
EndPrivate
BeginChars: 65539 103

StartChar: uniE000
Encoding: 57344 57344 4
Width: 2048
GlyphClass: 2
Flags: W
LayerCount: 2
Fore
SplineSet
877 1073 m 0,0,1
 789 1072 789 1072 713 1018 c 128,-1,2
 637 964 637 964 603 886 c 0,3,4
 568 808 568 808 580 716 c 128,-1,5
 592 624 592 624 656 553 c 1,6,7
 752 458 752 458 880 454 c 128,-1,8
 1008 450 1008 450 1106 543 c 0,9,10
 1162 598 1162 598 1184 671 c 128,-1,11
 1206 744 1206 744 1190 813 c 128,-1,12
 1174 882 1174 882 1136 941 c 128,-1,13
 1098 1000 1098 1000 1032 1036 c 128,-1,14
 966 1072 966 1072 877 1073 c 0,0,1
888 1305 m 128,-1,16
 1112 1305 1112 1305 1271 1145 c 0,17,18
 1408 1008 1408 1008 1428 817 c 128,-1,19
 1448 626 1448 626 1343 468 c 1,20,-1
 1705 106 l 1,21,-1
 1644 45 l 2,22,23
 1601 2 1601 2 1541 2 c 128,-1,24
 1481 2 1481 2 1439 45 c 2,25,-1
 1179 303 l 1,26,27
 1020 200 1020 200 828 222 c 128,-1,28
 636 244 636 244 501 378 c 0,29,30
 398 482 398 482 361 622 c 128,-1,31
 324 762 324 762 361 902 c 128,-1,32
 398 1042 398 1042 503 1146 c 0,33,15
 664 1305 664 1305 888 1305 c 128,-1,16
EndSplineSet
EndChar

StartChar: uniE001
Encoding: 57345 57345 5
Width: 2048
GlyphClass: 2
Flags: W
LayerCount: 2
Fore
SplineSet
790 755 m 1,0,-1
 1592 755 l 2,1,2
 1652 754 1652 754 1694 712 c 128,-1,3
 1736 670 1736 670 1736 610 c 2,4,-1
 1736 526 l 1,5,-1
 790 526 l 1,6,-1
 790 217 l 1,7,-1
 313 622 l 1,8,-1
 790 1063 l 1,9,-1
 790 755 l 1,0,-1
EndSplineSet
EndChar

StartChar: uniE002
Encoding: 57346 57346 6
Width: 2048
GlyphClass: 2
Flags: W
LayerCount: 2
Fore
SplineSet
1585 1143 m 128,-1,1
 1645 1143 1645 1143 1687 1101 c 2,2,-1
 1745 1041 l 1,3,-1
 786 82 l 1,4,-1
 289 579 l 1,5,-1
 450 740 l 1,6,-1
 786 405 l 1,7,-1
 1482 1101 l 2,8,0
 1525 1143 1525 1143 1585 1143 c 128,-1,1
EndSplineSet
EndChar

StartChar: uniE003
Encoding: 57347 57347 7
Width: 2048
GlyphClass: 2
Flags: W
LayerCount: 2
Fore
SplineSet
1513 1032 m 128,-1,1
 1513 973 1513 973 1471 930 c 2,2,-1
 1180 637 l 1,3,-1
 1573 244 l 1,4,-1
 1411 82 l 1,5,-1
 1018 475 l 1,6,-1
 623 82 l 1,7,-1
 563 142 l 2,8,9
 520 184 520 184 520 244 c 128,-1,10
 520 304 520 304 563 346 c 2,11,-1
 855 638 l 1,12,-1
 476 1017 l 1,13,-1
 638 1179 l 1,14,-1
 1017 800 l 1,15,-1
 1411 1194 l 1,16,-1
 1471 1134 l 2,17,0
 1513 1091 1513 1091 1513 1032 c 128,-1,1
EndSplineSet
EndChar

StartChar: uniE004
Encoding: 57348 57348 8
Width: 2048
GlyphClass: 2
Flags: W
LayerCount: 2
Fore
SplineSet
1024 568 m 1,0,-1
 1323 270 l 1,1,-1
 1445 392 l 1,2,-1
 1147 691 l 1,3,-1
 1445 990 l 1,4,-1
 1323 1112 l 1,5,-1
 1024 814 l 1,6,-1
 737 1102 l 1,7,-1
 613 978 l 1,8,-1
 901 691 l 1,9,-1
 603 392 l 1,10,-1
 725 270 l 1,11,-1
 1024 568 l 1,0,-1
1024 1386 m 128,-1,13
 1166 1386 1166 1386 1294 1331 c 128,-1,14
 1422 1276 1422 1276 1516 1182 c 128,-1,15
 1610 1088 1610 1088 1664 960 c 0,16,17
 1719 832 1719 832 1719 691 c 128,-1,18
 1719 550 1719 550 1664 422 c 0,19,20
 1610 294 1610 294 1516 200 c 128,-1,21
 1422 106 1422 106 1294 51 c 128,-1,22
 1166 -4 1166 -4 1024 -4 c 128,-1,23
 882 -4 882 -4 754 51 c 128,-1,24
 626 106 626 106 532 200 c 128,-1,25
 438 294 438 294 384 422 c 0,26,27
 329 550 329 550 329 691 c 128,-1,28
 329 832 329 832 384 960 c 0,29,30
 438 1088 438 1088 532 1182 c 128,-1,31
 626 1276 626 1276 754 1331 c 128,-1,12
 882 1386 882 1386 1024 1386 c 128,-1,13
EndSplineSet
EndChar

StartChar: uniE005
Encoding: 57349 57349 9
Width: 2048
GlyphClass: 2
Flags: W
LayerCount: 2
Fore
SplineSet
1142 803 m 1,0,-1
 1024 1042 l 1,1,-1
 906 803 l 1,2,-1
 641 764 l 1,3,-1
 833 578 l 1,4,-1
 787 314 l 1,5,-1
 1024 438 l 1,6,-1
 1261 314 l 1,7,-1
 1215 578 l 1,8,-1
 1406 764 l 1,9,-1
 1142 803 l 1,0,-1
792 960 m 1,10,-1
 1024 1431 l 1,11,-1
 1256 960 l 1,12,-1
 1776 885 l 1,13,-1
 1400 518 l 1,14,-1
 1489 0 l 1,15,-1
 1024 244 l 1,16,-1
 559 1 l 1,17,-1
 648 518 l 1,18,-1
 272 885 l 1,19,-1
 792 960 l 1,10,-1
EndSplineSet
EndChar

StartChar: uniE006
Encoding: 57350 57350 10
Width: 2053
GlyphClass: 2
Flags: W
LayerCount: 2
Fore
SplineSet
794 965 m 1,0,-1
 1027 1439 l 1,1,-1
 1259 965 l 1,2,-1
 1781 889 l 1,3,-1
 1404 521 l 1,4,-1
 1494 0 l 1,5,-1
 1027 245 l 1,6,-1
 560 2 l 1,7,-1
 649 521 l 1,8,-1
 272 889 l 1,9,-1
 794 965 l 1,0,-1
EndSplineSet
EndChar

StartChar: uniE007
Encoding: 57351 57351 11
Width: 2048
GlyphClass: 2
Flags: W
LayerCount: 2
Fore
SplineSet
1094 624 m 1,0,-1
 1532 624 l 1,1,-1
 1532 474 l 1,2,-1
 1094 474 l 1,3,-1
 1094 624 l 1,0,-1
1094 387 m 1,4,-1
 1644 387 l 1,5,-1
 1644 237 l 1,6,-1
 1094 237 l 1,7,-1
 1094 387 l 1,4,-1
1094 150 m 1,8,-1
 1434 150 l 1,9,-1
 1434 0 l 1,10,-1
 1094 0 l 1,11,-1
 1094 150 l 1,8,-1
1006 711 m 1,12,-1
 1006 282 l 1,13,-1
 597 69 l 1,14,-1
 676 522 l 1,15,-1
 345 842 l 1,16,-1
 802 908 l 1,17,-1
 1006 1320 l 1,18,19
 1210 908 1210 908 1220 906 c 2,20,-1
 1668 842 l 1,21,-1
 1532 711 l 1,22,-1
 1006 711 l 1,12,-1
EndSplineSet
EndChar

StartChar: uniE008
Encoding: 57352 57352 12
Width: 2048
GlyphClass: 2
Flags: W
LayerCount: 2
Fore
SplineSet
1544 1202 m 128,-1,1
 1544 1160 1544 1160 1518 1121 c 1,2,-1
 1400 1004 l 1,3,-1
 1327 1073 l 1,4,-1
 1518 1265 l 1,5,0
 1544 1244 1544 1244 1544 1202 c 128,-1,1
1503 751 m 1,6,-1
 1775 751 l 1,7,8
 1775 709 1775 709 1745 678 c 128,-1,9
 1715 647 1715 647 1674 647 c 2,10,-1
 1503 647 l 1,11,-1
 1503 751 l 1,6,-1
974 1174 m 1,12,-1
 974 1446 l 1,13,14
 1016 1446 1016 1446 1047 1416 c 128,-1,15
 1078 1386 1078 1386 1078 1345 c 2,16,-1
 1078 1174 l 1,17,-1
 974 1174 l 1,12,-1
1518 178 m 128,-1,19
 1476 178 1476 178 1447 207 c 2,20,-1
 1327 326 l 1,21,-1
 1398 397 l 1,22,-1
 1589 207 l 1,23,18
 1560 178 1560 178 1518 178 c 128,-1,19
530 1223 m 128,-1,25
 571 1223 571 1223 600 1194 c 2,26,-1
 720 1074 l 1,27,-1
 649 1002 l 1,28,-1
 460 1194 l 1,29,24
 489 1223 489 1223 530 1223 c 128,-1,25
973 219 m 1,30,-1
 1077 219 l 1,31,-1
 1077 -53 l 1,32,33
 1035 -53 1035 -53 1004 -23 c 128,-1,34
 973 7 973 7 973 48 c 2,35,-1
 973 219 l 1,30,-1
373 751 m 2,36,-1
 544 751 l 1,37,-1
 544 647 l 1,38,-1
 272 647 l 1,39,40
 272 689 272 689 302 720 c 128,-1,41
 332 751 332 751 373 751 c 2,36,-1
530 276 m 2,42,-1
 650 396 l 1,43,-1
 721 325 l 1,44,-1
 531 134 l 1,45,46
 502 163 502 163 502 205 c 128,-1,47
 502 247 502 247 530 276 c 2,42,-1
1026 1062 m 128,-1,49
 1177 1062 1177 1062 1283 956 c 128,-1,50
 1389 850 1389 850 1389 698 c 128,-1,51
 1389 546 1389 546 1283 440 c 128,-1,52
 1177 334 1177 334 1027 334 c 128,-1,53
 877 334 877 334 769 442 c 128,-1,54
 661 550 661 550 661 699 c 0,55,56
 661 850 661 850 768 956 c 128,-1,48
 875 1062 875 1062 1026 1062 c 128,-1,49
EndSplineSet
EndChar

StartChar: uniE009
Encoding: 57353 57353 13
Width: 2048
GlyphClass: 2
Flags: W
LayerCount: 2
Fore
SplineSet
1138 0 m 1,0,-1
 1052 0 l 2,1,2
 993 0 993 0 951 42 c 128,-1,3
 909 84 909 84 909 143 c 2,4,-1
 909 468 l 1,5,-1
 290 1116 l 1,6,-1
 1759 1116 l 1,7,-1
 1138 466 l 1,8,-1
 1138 0 l 1,0,-1
EndSplineSet
EndChar

StartChar: uniE010
Encoding: 57360 57360 14
Width: 2048
GlyphClass: 2
Flags: W
LayerCount: 2
Fore
SplineSet
1024 867 m 0,0,1
 1097 867 1097 867 1149 815 c 128,-1,2
 1201 763 1201 763 1201 690 c 0,3,4
 1201 616 1201 616 1149 564 c 0,5,6
 1098 512 1098 512 1024 512 c 128,-1,7
 950 512 950 512 898 564 c 128,-1,8
 846 616 846 616 846 690 c 128,-1,9
 846 764 846 764 898 815 c 0,10,11
 950 867 950 867 1024 867 c 0,0,1
1024 363 m 128,-1,13
 1158 363 1158 363 1254 459 c 0,14,15
 1350 556 1350 556 1350 690 c 128,-1,16
 1350 824 1350 824 1254 920 c 128,-1,17
 1158 1016 1158 1016 1024 1016 c 128,-1,18
 890 1016 890 1016 794 920 c 128,-1,19
 698 824 698 824 698 690 c 128,-1,20
 698 556 698 556 794 459 c 0,21,12
 890 363 890 363 1024 363 c 128,-1,13
1012 1212 m 128,-1,23
 1104 1212 1104 1212 1198 1182 c 128,-1,24
 1292 1152 1292 1152 1376 1110 c 0,25,26
 1459 1066 1459 1066 1549 1006 c 0,27,28
 1688 914 1688 914 1796 819 c 128,-1,29
 1904 724 1904 724 1939 690 c 1,30,-1
 1909 661 l 2,31,32
 1843 597 1843 597 1738 513 c 0,33,34
 1559 369 1559 369 1371 268 c 128,-1,35
 1183 167 1183 167 1024 167 c 0,36,37
 739 168 739 168 449 374 c 0,38,39
 311 472 311 472 221 566 c 128,-1,40
 131 660 131 660 108 690 c 1,41,-1
 132 719 l 2,42,43
 181 781 181 781 275 866 c 0,44,45
 368 950 368 950 450 1006 c 128,-1,46
 532 1062 532 1062 618 1108 c 0,47,48
 706 1154 706 1154 813 1183 c 128,-1,22
 920 1212 920 1212 1012 1212 c 128,-1,23
EndSplineSet
EndChar

StartChar: uniE011
Encoding: 57361 57361 15
Width: 2048
GlyphClass: 2
Flags: W
LayerCount: 2
Fore
SplineSet
1112 137 m 1,0,-1
 940 137 l 1,1,-1
 940 390 l 1,2,3
 836 397 836 397 733 425 c 1,4,-1
 646 195 l 1,5,-1
 486 256 l 1,6,-1
 571 482 l 1,7,8
 470 528 470 528 389 586 c 1,9,-1
 236 405 l 1,10,-1
 105 515 l 1,11,-1
 258 697 l 1,12,13
 162 791 162 791 91 910 c 1,14,-1
 181 962 l 2,15,16
 226 990 226 990 278 981 c 128,-1,17
 330 972 330 972 365 931 c 0,18,19
 486 782 486 782 659 700 c 128,-1,20
 832 618 832 618 1026 618 c 128,-1,21
 1220 618 1220 618 1394 700 c 0,22,23
 1566 782 1566 782 1687 931 c 0,24,25
 1722 972 1722 972 1774 981 c 128,-1,26
 1826 990 1826 990 1872 962 c 2,27,-1
 1955 908 l 1,28,29
 1884 790 1884 790 1793 699 c 1,30,-1
 1958 503 l 1,31,-1
 1827 393 l 1,32,-1
 1663 587 l 1,33,34
 1578 526 1578 526 1484 483 c 1,35,-1
 1573 249 l 1,36,-1
 1412 188 l 1,37,-1
 1322 425 l 1,38,39
 1217 397 1217 397 1112 390 c 1,40,-1
 1112 137 l 1,0,-1
EndSplineSet
EndChar

StartChar: uniE012
Encoding: 57362 57362 16
Width: 2048
GlyphClass: 2
Flags: W
LayerCount: 2
Fore
SplineSet
731 990 m 1,0,-1
 731 1292 l 1,1,-1
 665 1292 l 2,2,3
 629 1292 629 1292 604 1266 c 128,-1,4
 579 1240 579 1240 579 1206 c 2,5,-1
 579 990 l 1,6,-1
 731 990 l 1,0,-1
616 1397 m 2,7,-1
 1337 1397 l 2,8,9
 1385 1397 1385 1397 1419 1363 c 128,-1,10
 1453 1329 1453 1329 1453 1281 c 2,11,-1
 1453 -45 l 1,12,-1
 1093 195 l 1,13,-1
 744 -45 l 1,14,-1
 744 884 l 1,15,-1
 473 884 l 1,16,-1
 473 1254 l 2,17,18
 473 1313 473 1313 515 1355 c 128,-1,19
 557 1397 557 1397 616 1397 c 2,7,-1
EndSplineSet
EndChar

StartChar: uniE013
Encoding: 57363 57363 17
Width: 2048
GlyphClass: 2
Flags: W
LayerCount: 2
Fore
SplineSet
1392 1039 m 1,0,-1
 1392 1261 l 1,1,-1
 720 1261 l 2,2,3
 697 1261 697 1261 680 1244 c 128,-1,4
 663 1227 663 1227 663 1204 c 2,5,-1
 663 1039 l 1,6,-1
 1392 1039 l 1,0,-1
1387 100 m 1,7,-1
 1387 648 l 1,8,-1
 649 648 l 1,9,-1
 649 100 l 1,10,-1
 1387 100 l 1,7,-1
703 1361 m 2,11,-1
 1487 1361 l 1,12,-1
 1487 1039 l 1,13,-1
 1676 1039 l 2,14,15
 1736 1039 1736 1039 1778 997 c 128,-1,16
 1820 955 1820 955 1820 896 c 2,17,-1
 1820 256 l 1,18,-1
 1487 256 l 1,19,-1
 1487 0 l 1,20,-1
 548 0 l 1,21,-1
 548 256 l 1,22,-1
 327 256 l 2,23,24
 286 256 286 256 257 285 c 128,-1,25
 228 314 228 314 228 355 c 2,26,-1
 228 1039 l 1,27,-1
 560 1039 l 1,28,-1
 560 1218 l 2,29,30
 560 1277 560 1277 602 1319 c 128,-1,31
 644 1361 644 1361 703 1361 c 2,11,-1
EndSplineSet
EndChar

StartChar: uniE014
Encoding: 57364 57364 18
Width: 2048
GlyphClass: 2
Flags: W
LayerCount: 2
Fore
SplineSet
732 1082 m 2,0,-1
 988 1337 l 1,1,-1
 1254 1071 l 2,2,3
 1258 1067 1258 1067 1264 1069 c 0,4,5
 1271 1071 1271 1071 1274 1109 c 0,6,7
 1280 1191 1280 1191 1328 1231 c 128,-1,8
 1376 1271 1376 1271 1435 1272 c 128,-1,9
 1494 1273 1494 1273 1546 1225 c 2,10,-1
 1562 1209 l 2,11,12
 1624 1146 1624 1146 1624 1084 c 128,-1,13
 1624 1022 1624 1022 1588 980 c 128,-1,14
 1552 938 1552 938 1506 928 c 128,-1,15
 1460 918 1460 918 1442 918 c 128,-1,16
 1424 918 1424 918 1422 912 c 128,-1,17
 1420 906 1420 906 1424 901 c 2,18,-1
 1690 635 l 1,19,-1
 1432 377 l 2,20,21
 1428 372 1428 372 1430 366 c 128,-1,22
 1432 360 1432 360 1438 360 c 0,23,24
 1446 359 1446 359 1474 356 c 128,-1,25
 1502 353 1502 353 1517 350 c 0,26,27
 1567 339 1567 339 1603 296 c 128,-1,28
 1639 253 1639 253 1640 194 c 128,-1,29
 1641 135 1641 135 1593 84 c 2,30,-1
 1577 68 l 2,31,32
 1513 4 1513 4 1452 4 c 128,-1,33
 1391 4 1391 4 1343 46 c 0,34,35
 1295 87 1295 87 1289 169 c 0,36,37
 1285 230 1285 230 1268 213 c 2,38,-1
 976 -79 l 1,39,-1
 697 200 l 2,40,41
 685 212 685 212 702 217 c 128,-1,42
 719 222 719 222 754 225 c 128,-1,43
 789 228 789 228 803 231 c 0,44,45
 853 240 853 240 889 284 c 128,-1,46
 925 328 925 328 926 388 c 128,-1,47
 927 448 927 448 879 496 c 2,48,-1
 863 513 l 2,49,50
 842 537 842 537 802 557 c 0,51,52
 762 576 762 576 720 576 c 128,-1,53
 678 576 678 576 635 540 c 128,-1,54
 592 504 592 504 581 453 c 0,55,56
 578 440 578 440 575 405 c 128,-1,57
 572 370 572 370 567 353 c 128,-1,58
 562 336 562 336 550 347 c 2,59,-1
 274 623 l 1,60,-1
 563 912 l 2,61,62
 567 916 567 916 565 922 c 0,63,64
 564 928 564 928 560 928 c 128,-1,65
 556 928 556 928 527 932 c 0,66,67
 498 935 498 935 484 938 c 0,68,69
 434 949 434 949 398 992 c 128,-1,70
 362 1035 362 1035 361 1094 c 128,-1,71
 360 1153 360 1153 408 1204 c 2,72,-1
 424 1220 l 2,73,74
 488 1284 488 1284 548 1284 c 128,-1,75
 608 1284 608 1284 656 1244 c 0,76,77
 702 1205 702 1205 712 1110 c 0,78,79
 716 1070 716 1070 732 1082 c 2,0,-1
EndSplineSet
EndChar

StartChar: uniE015
Encoding: 57365 57365 19
Width: 1835
GlyphClass: 2
Flags: W
LayerCount: 2
Fore
SplineSet
986 1159 m 1,0,-1
 818 1159 l 1,1,-1
 818 597 l 1,2,-1
 1200 377 l 1,3,-1
 1212 398 l 2,4,5
 1242 449 1242 449 1226 506 c 128,-1,6
 1210 563 1210 563 1160 593 c 2,7,-1
 986 695 l 1,8,-1
 986 1159 l 1,0,-1
918 1380 m 0,9,10
 1105 1380 1105 1380 1264 1288 c 0,11,12
 1424 1196 1424 1196 1516 1036 c 0,13,14
 1608 877 1608 877 1608 690 c 128,-1,15
 1608 503 1608 503 1516 344 c 0,16,17
 1424 184 1424 184 1264 92 c 0,18,19
 1105 0 1105 0 918 0 c 0,20,21
 732 0 732 0 572 92 c 128,-1,22
 412 184 412 184 320 344 c 0,23,24
 228 503 228 503 227 690 c 0,25,26
 228 877 228 877 320 1036 c 0,27,28
 412 1196 412 1196 572 1288 c 128,-1,29
 732 1380 732 1380 918 1380 c 0,9,10
EndSplineSet
EndChar

StartChar: uniE016
Encoding: 57366 57366 20
Width: 2048
GlyphClass: 2
Flags: W
LayerCount: 2
Fore
SplineSet
1316 1044 m 128,-1,1
 1268 1044 1268 1044 1234 1010 c 128,-1,2
 1200 976 1200 976 1201 930 c 0,3,4
 1200 882 1200 882 1234 848 c 128,-1,5
 1268 814 1268 814 1316 815 c 0,6,7
 1364 814 1364 814 1396 848 c 0,8,9
 1430 882 1430 882 1430 930 c 128,-1,10
 1430 978 1430 978 1396 1010 c 0,11,0
 1364 1044 1364 1044 1316 1044 c 128,-1,1
1316 462 m 128,-1,13
 1268 462 1268 462 1234 428 c 128,-1,14
 1200 394 1200 394 1201 348 c 0,15,16
 1200 300 1200 300 1234 266 c 128,-1,17
 1268 232 1268 232 1316 233 c 0,18,19
 1364 232 1364 232 1396 266 c 0,20,21
 1430 300 1430 300 1430 348 c 128,-1,22
 1430 396 1430 396 1396 428 c 0,23,12
 1364 462 1364 462 1316 462 c 128,-1,13
734 1044 m 128,-1,25
 686 1044 686 1044 652 1010 c 128,-1,26
 618 976 618 976 619 930 c 0,27,28
 618 882 618 882 652 848 c 128,-1,29
 686 814 686 814 734 815 c 0,30,31
 782 814 782 814 814 848 c 0,32,33
 848 882 848 882 848 930 c 128,-1,34
 848 978 848 978 814 1010 c 0,35,24
 782 1044 782 1044 734 1044 c 128,-1,25
1024 753 m 0,36,37
 976 754 976 754 944 720 c 0,38,39
 910 686 910 686 910 638 c 128,-1,40
 910 590 910 590 944 558 c 0,41,42
 978 524 978 524 1024 524 c 0,43,44
 1072 524 1072 524 1106 558 c 128,-1,45
 1140 592 1140 592 1139 638 c 0,46,47
 1140 686 1140 686 1106 720 c 128,-1,48
 1072 754 1072 754 1024 753 c 0,36,37
748 462 m 128,-1,50
 700 462 700 462 666 428 c 128,-1,51
 632 394 632 394 633 348 c 0,52,53
 632 300 632 300 666 266 c 128,-1,54
 700 232 700 232 748 233 c 0,55,56
 796 232 796 232 828 266 c 0,57,58
 862 300 862 300 862 348 c 128,-1,59
 862 396 862 396 828 428 c 0,60,49
 796 462 796 462 748 462 c 128,-1,50
386 1277 m 1,61,-1
 1520 1277 l 2,62,63
 1579 1277 1579 1277 1621 1235 c 128,-1,64
 1663 1193 1663 1193 1663 1134 c 2,65,-1
 1663 0 l 1,66,-1
 529 0 l 2,67,68
 470 0 470 0 428 42 c 128,-1,69
 386 84 386 84 386 143 c 2,70,-1
 386 1277 l 1,61,-1
EndSplineSet
EndChar

StartChar: uniE017
Encoding: 57367 57367 21
Width: 2048
GlyphClass: 2
Flags: W
LayerCount: 2
Fore
SplineSet
1131 1137 m 1,0,-1
 1131 844 l 1,1,-1
 1423 844 l 1,2,-1
 1423 983 l 1,3,-1
 1723 706 l 1,4,-1
 1423 451 l 1,5,-1
 1423 591 l 1,6,-1
 1130 591 l 1,7,-1
 1130 299 l 1,8,-1
 1269 299 l 1,9,-1
 992 0 l 1,10,-1
 738 299 l 1,11,-1
 877 299 l 1,12,-1
 877 591 l 1,13,-1
 585 591 l 1,14,-1
 585 452 l 1,15,-1
 284 706 l 1,16,-1
 584 984 l 1,17,-1
 584 845 l 1,18,-1
 877 845 l 1,19,-1
 877 1137 l 1,20,-1
 737 1137 l 1,21,-1
 992 1437 l 1,22,-1
 1270 1137 l 1,23,-1
 1131 1137 l 1,0,-1
EndSplineSet
EndChar

StartChar: uniE018
Encoding: 57368 57368 22
Width: 2055
GlyphClass: 2
Flags: W
LayerCount: 2
Fore
SplineSet
1028 954 m 0,0,1
 920 954 920 954 842 877 c 128,-1,2
 764 800 764 800 764 690 c 128,-1,3
 764 580 764 580 841 504 c 0,4,5
 918 427 918 427 1028 427 c 0,6,7
 1138 428 1138 428 1214 504 c 128,-1,8
 1290 580 1290 580 1291 690 c 0,9,10
 1291 800 1291 800 1214 877 c 128,-1,11
 1137 954 1137 954 1028 954 c 0,0,1
902 1380 m 1,12,-1
 1155 1380 l 1,13,-1
 1180 1227 l 1,14,15
 1233 1213 1233 1213 1298 1178 c 1,16,-1
 1426 1270 l 1,17,-1
 1604 1088 l 1,18,-1
 1513 960 l 1,19,20
 1550 894 1550 894 1563 843 c 1,21,-1
 1718 816 l 1,22,-1
 1718 564 l 1,23,-1
 1563 539 l 1,24,25
 1550 489 1550 489 1513 420 c 1,26,-1
 1604 292 l 1,27,-1
 1426 114 l 1,28,-1
 1298 205 l 1,29,30
 1241 174 1241 174 1180 156 c 1,31,-1
 1155 0 l 1,32,-1
 900 0 l 1,33,-1
 875 154 l 1,34,35
 813 171 813 171 756 202 c 1,36,-1
 628 113 l 1,37,-1
 450 291 l 1,38,-1
 540 419 l 1,39,40
 508 478 508 478 491 538 c 1,41,-1
 337 564 l 1,42,-1
 337 818 l 1,43,-1
 491 842 l 1,44,45
 507 901 507 901 540 961 c 1,46,-1
 450 1089 l 1,47,-1
 629 1267 l 1,48,-1
 758 1176 l 1,49,50
 821 1211 821 1211 875 1225 c 1,51,-1
 902 1380 l 1,12,-1
EndSplineSet
EndChar

StartChar: uniE019
Encoding: 57369 57369 23
Width: 2048
GlyphClass: 2
Flags: W
LayerCount: 2
Fore
SplineSet
1583 790 m 128,-1,1
 1652 790 1652 790 1701 741 c 128,-1,2
 1750 692 1750 692 1750 623 c 128,-1,3
 1750 554 1750 554 1701 506 c 128,-1,4
 1652 458 1652 458 1583 457 c 0,5,6
 1514 458 1514 458 1465 506 c 128,-1,7
 1416 554 1416 554 1416 623 c 128,-1,8
 1416 692 1416 692 1465 741 c 128,-1,0
 1514 790 1514 790 1583 790 c 128,-1,1
1190 623 m 128,-1,10
 1190 554 1190 554 1142 506 c 128,-1,11
 1094 458 1094 458 1024 457 c 0,12,13
 955 458 955 458 906 506 c 128,-1,14
 857 554 857 554 857 623 c 128,-1,15
 857 692 857 692 906 741 c 128,-1,16
 955 790 955 790 1024 790 c 0,17,18
 1094 790 1094 790 1142 741 c 128,-1,9
 1190 692 1190 692 1190 623 c 128,-1,10
631 623 m 128,-1,20
 631 554 631 554 582 506 c 128,-1,21
 533 458 533 458 464 457 c 0,22,23
 395 458 395 458 346 506 c 128,-1,24
 297 554 297 554 297 623 c 128,-1,25
 297 692 297 692 346 741 c 128,-1,26
 395 790 395 790 464 790 c 128,-1,27
 533 790 533 790 582 741 c 128,-1,19
 631 692 631 692 631 623 c 128,-1,20
EndSplineSet
EndChar

StartChar: uniE020
Encoding: 57376 57376 24
Width: 2048
GlyphClass: 2
Flags: W
LayerCount: 2
Fore
SplineSet
259 1197 m 1,0,-1
 1652 1197 l 2,1,2
 1710 1196 1710 1196 1750 1156 c 128,-1,3
 1790 1116 1790 1116 1790 1059 c 2,4,-1
 1790 995 l 1,5,-1
 1028 607 l 1,6,-1
 259 997 l 1,7,-1
 259 1197 l 1,0,-1
1790 0 m 1,8,-1
 397 0 l 2,9,10
 340 0 340 0 300 40 c 128,-1,11
 260 80 260 80 259 138 c 2,12,-1
 259 805 l 1,13,-1
 1030 418 l 1,14,-1
 1790 805 l 1,15,-1
 1790 0 l 1,8,-1
EndSplineSet
EndChar

StartChar: uniE021
Encoding: 57377 57377 25
Width: 2048
GlyphClass: 2
Flags: W
LayerCount: 2
Fore
SplineSet
1225 1325 m 0,0,1
 1324 1411 1324 1411 1456 1407 c 128,-1,2
 1588 1403 1588 1403 1680 1320 c 0,3,4
 1772 1238 1772 1238 1790 1120 c 0,5,6
 1819 938 1819 938 1665 800 c 0,7,8
 1660 796 1660 796 1573 718 c 0,9,10
 1486 641 1486 641 824 50 c 0,11,12
 728 -34 728 -34 598 -36 c 128,-1,13
 468 -38 468 -38 372 45 c 1,14,15
 210 202 210 202 268 404 c 0,16,17
 289 476 289 476 322 514 c 128,-1,18
 355 552 355 552 378 572 c 0,19,20
 400 592 400 592 430 618 c 128,-1,21
 460 644 460 644 474 657 c 2,22,-1
 933 1065 l 2,23,24
 1084 1199 1084 1199 1219 1117 c 0,25,26
 1282 1079 1282 1079 1306 1014 c 0,27,28
 1330 950 1330 950 1313 882 c 0,29,30
 1295 814 1295 814 1242 767 c 2,31,-1
 793 368 l 1,32,33
 696 477 696 477 777 548 c 0,34,35
 977 729 977 729 1151 883 c 0,36,37
 1184 911 1184 911 1163 946 c 0,38,39
 1143 981 1143 981 1119 980 c 0,40,41
 1094 980 1094 980 1062 952 c 128,-1,42
 1030 924 1030 924 784 704 c 128,-1,43
 538 484 538 484 524 469 c 128,-1,44
 510 454 510 454 482 426 c 0,45,46
 445 387 445 387 427 330 c 0,47,48
 409 272 409 272 448 218 c 0,49,50
 486 164 486 164 541 146 c 128,-1,51
 596 128 596 128 642 142 c 0,52,53
 721 167 721 167 1365 758 c 2,54,-1
 1579 954 l 1,55,56
 1616 994 1616 994 1620 1052 c 128,-1,57
 1624 1110 1624 1110 1596 1154 c 128,-1,58
 1568 1198 1568 1198 1534 1216 c 0,59,60
 1498 1234 1498 1234 1460 1232 c 128,-1,61
 1422 1230 1422 1230 1370 1225 c 0,62,63
 1318 1219 1318 1219 1281 1260 c 0,64,65
 1279 1263 1279 1263 1247 1290 c 0,66,67
 1216 1318 1216 1318 1225 1325 c 0,0,1
EndSplineSet
EndChar

StartChar: uniE022
Encoding: 57378 57378 26
Width: 2048
GlyphClass: 2
Flags: W
LayerCount: 2
Fore
SplineSet
1418 204 m 1,0,-1
 1418 551 l 1,1,-1
 1622 551 l 1,2,-1
 1622 0 l 1,3,-1
 547 0 l 2,4,5
 494 0 494 0 458 36 c 128,-1,6
 422 72 422 72 422 125 c 2,7,-1
 422 551 l 1,8,-1
 626 551 l 1,9,-1
 626 294 l 2,10,11
 626 256 626 256 652 230 c 128,-1,12
 678 204 678 204 716 204 c 2,13,-1
 1418 204 l 1,0,-1
1119 846 m 1,14,-1
 1119 337 l 1,15,-1
 1044 337 l 2,16,17
 992 338 992 338 956 374 c 128,-1,18
 920 410 920 410 919 462 c 2,19,-1
 919 846 l 1,20,-1
 651 846 l 1,21,-1
 1035 1262 l 1,22,-1
 1387 846 l 1,23,-1
 1119 846 l 1,14,-1
EndSplineSet
EndChar

StartChar: uniE023
Encoding: 57379 57379 27
Width: 2048
GlyphClass: 2
Flags: W
LayerCount: 2
Fore
SplineSet
1049 1400 m 2,0,-1
 1136 1400 l 1,1,-1
 1136 864 l 1,2,-1
 1442 864 l 1,3,-1
 1039 387 l 1,4,-1
 599 865 l 1,5,-1
 905 865 l 1,6,-1
 905 1256 l 2,7,8
 906 1316 906 1316 948 1358 c 128,-1,9
 990 1400 990 1400 1049 1400 c 2,0,-1
334 634 m 1,10,-1
 569 634 l 1,11,-1
 569 338 l 2,12,13
 569 294 569 294 599 264 c 128,-1,14
 629 234 629 234 672 234 c 2,15,-1
 1479 234 l 1,16,-1
 1479 633 l 1,17,-1
 1714 633 l 1,18,-1
 1714 0 l 1,19,-1
 478 0 l 2,20,21
 418 0 418 0 376 42 c 128,-1,22
 334 84 334 84 334 143 c 2,23,-1
 334 634 l 1,10,-1
EndSplineSet
EndChar

StartChar: uniE024
Encoding: 57380 57380 28
Width: 2048
GlyphClass: 2
Flags: W
LayerCount: 2
Fore
SplineSet
433 1171 m 1,0,-1
 630 1171 l 1,1,-1
 807 991 l 1,2,-1
 613 991 l 1,3,-1
 613 285 l 2,4,5
 614 242 614 242 644 212 c 128,-1,6
 674 182 674 182 717 181 c 2,7,-1
 1422 181 l 1,8,-1
 1422 375 l 1,9,-1
 1602 191 l 1,10,-1
 1602 1 l 1,11,-1
 577 0 l 2,12,13
 517 0 517 0 475 42 c 128,-1,14
 433 84 433 84 433 143 c 2,15,-1
 433 1171 l 1,0,-1
837 508 m 128,-1,17
 837 568 837 568 880 609 c 2,18,-1
 1197 926 l 1,19,-1
 949 1174 l 1,20,-1
 1600 1174 l 1,21,-1
 1600 524 l 1,22,-1
 1359 764 l 1,23,-1
 940 345 l 1,24,-1
 880 406 l 2,25,16
 837 448 837 448 837 508 c 128,-1,17
EndSplineSet
EndChar

StartChar: uniE025
Encoding: 57381 57381 29
Width: 2048
GlyphClass: 2
Flags: W
LayerCount: 2
Fore
SplineSet
1022 -108 m 128,-1,1
 952 -108 952 -108 893 -65 c 0,2,3
 835 -22 835 -22 814 43 c 1,4,-1
 1226 43 l 1,5,6
 1204 -24 1204 -24 1148 -66 c 128,-1,0
 1092 -108 1092 -108 1022 -108 c 128,-1,1
466 848 m 2,7,8
 466 998 466 998 541 1126 c 128,-1,9
 616 1254 616 1254 744 1330 c 128,-1,10
 872 1406 872 1406 1020 1408 c 0,11,12
 1132 1406 1132 1406 1234 1360 c 128,-1,13
 1336 1314 1336 1314 1410 1240 c 128,-1,14
 1484 1166 1484 1166 1530 1063 c 0,15,16
 1574 960 1574 960 1574 848 c 2,17,-1
 1574 377 l 1,18,-1
 1721 142 l 1,19,-1
 319 142 l 1,20,-1
 466 377 l 1,21,-1
 466 848 l 2,7,8
EndSplineSet
EndChar

StartChar: uniE026
Encoding: 57382 57382 30
Width: 2048
GlyphClass: 2
Flags: W
LayerCount: 2
Fore
SplineSet
917 62 m 1,0,-1
 1320 -23 l 1,1,2
 1286 -84 1286 -84 1222 -114 c 128,-1,3
 1158 -144 1158 -144 1088 -130 c 128,-1,4
 1018 -116 1018 -116 972 -61 c 0,5,6
 925 -7 925 -7 917 62 c 1,0,-1
1545 268 m 1,7,-1
 1640 7 l 1,8,-1
 268 296 l 1,9,-1
 461 496 l 1,10,-1
 558 956 l 2,11,12
 588 1102 588 1102 688 1212 c 128,-1,13
 788 1322 788 1322 928 1371 c 0,14,15
 1068 1419 1068 1419 1215 1391 c 1,16,17
 1360 1358 1360 1358 1470 1257 c 128,-1,18
 1580 1156 1580 1156 1626 1015 c 128,-1,19
 1672 874 1672 874 1642 728 c 2,20,-1
 1545 268 l 1,7,-1
EndSplineSet
EndChar

StartChar: uniE027
Encoding: 57383 57383 31
Width: 2048
GlyphClass: 2
Flags: W
LayerCount: 2
Fore
SplineSet
1279 1080 m 2,0,-1
 840 666 l 1,1,-1
 1251 227 l 2,2,3
 1286 190 1286 190 1284 138 c 128,-1,4
 1282 86 1282 86 1245 49 c 2,5,-1
 1193 0 l 1,6,-1
 558 676 l 1,7,-1
 1233 1309 l 1,8,-1
 1283 1257 l 2,9,10
 1319 1219 1319 1219 1318 1167 c 128,-1,11
 1317 1115 1317 1115 1279 1080 c 2,0,-1
EndSplineSet
EndChar

StartChar: uniE028
Encoding: 57384 57384 32
Width: 2048
GlyphClass: 2
Flags: W
LayerCount: 2
Fore
SplineSet
1539 1009 m 128,-1,1
 1591 1009 1591 1009 1628 972 c 2,2,-1
 1679 921 l 1,3,-1
 1023 265 l 1,4,-1
 369 920 l 1,5,-1
 420 972 l 2,6,7
 456 1010 456 1010 508 1010 c 128,-1,8
 560 1010 560 1010 597 973 c 2,9,-1
 1024 547 l 1,10,-1
 1450 972 l 2,11,0
 1487 1009 1487 1009 1539 1009 c 128,-1,1
EndSplineSet
EndChar

StartChar: uniE029
Encoding: 57385 57385 33
Width: 2048
GlyphClass: 2
Flags: W
LayerCount: 2
Fore
SplineSet
1024 1164 m 128,-1,1
 925 1164 925 1164 855 1094 c 128,-1,2
 785 1024 785 1024 785 925 c 128,-1,3
 785 826 785 826 855 756 c 128,-1,4
 925 686 925 686 1024 686 c 128,-1,5
 1123 686 1123 686 1193 756 c 128,-1,6
 1263 826 1263 826 1263 925 c 128,-1,7
 1263 1024 1263 1024 1193 1094 c 128,-1,0
 1123 1164 1123 1164 1024 1164 c 128,-1,1
1024 394 m 128,-1,9
 1052 394 1052 394 1112 340 c 128,-1,10
 1172 286 1172 286 1187 278 c 1,11,-1
 1187 -92 l 1,12,-1
 1023 70 l 1,13,-1
 860 -91 l 1,14,-1
 860 278 l 1,15,16
 876 286 876 286 936 340 c 128,-1,8
 996 394 996 394 1024 394 c 128,-1,9
1521 925 m 0,17,18
 1521 895 1521 895 1458 864 c 0,19,20
 1395 834 1395 834 1387 812 c 128,-1,21
 1379 790 1379 790 1395 754 c 128,-1,22
 1411 718 1411 718 1424 683 c 0,23,24
 1437 649 1437 649 1426 633 c 0,25,26
 1415 616 1415 616 1376 618 c 128,-1,27
 1337 620 1337 620 1304 626 c 128,-1,28
 1271 632 1271 632 1247 618 c 0,29,30
 1230 604 1230 604 1216 532 c 128,-1,31
 1202 460 1202 460 1178 452 c 0,32,33
 1156 444 1156 444 1101 495 c 0,34,35
 1046 545 1046 545 1026 545 c 128,-1,36
 1006 545 1006 545 975 519 c 0,37,38
 945 493 945 493 917 470 c 128,-1,39
 889 447 889 447 868 453 c 0,40,41
 846 458 846 458 832 532 c 128,-1,42
 818 606 818 606 801 618 c 128,-1,43
 784 630 784 630 708 622 c 0,44,45
 632 613 632 613 622 633 c 0,46,47
 611 649 611 649 624 683 c 0,48,49
 637 718 637 718 653 754 c 0,50,51
 670 790 670 790 664 806 c 128,-1,52
 658 822 658 822 636 838 c 128,-1,53
 614 854 614 854 590 864 c 0,54,55
 566 876 566 876 546 892 c 128,-1,56
 526 908 526 908 527 925 c 0,57,58
 527 955 527 955 590 986 c 0,59,60
 653 1016 653 1016 662 1040 c 0,61,62
 670 1062 670 1062 639 1130 c 128,-1,63
 608 1198 608 1198 620 1216 c 128,-1,64
 632 1234 632 1234 672 1232 c 0,65,66
 711 1230 711 1230 744 1224 c 128,-1,67
 777 1218 777 1218 801 1232 c 0,68,69
 818 1244 818 1244 832 1318 c 128,-1,70
 846 1392 846 1392 870 1398 c 0,71,72
 894 1405 894 1405 948 1355 c 128,-1,73
 1002 1305 1002 1305 1024 1305 c 128,-1,74
 1046 1305 1046 1305 1100 1355 c 128,-1,75
 1154 1405 1154 1405 1178 1398 c 0,76,77
 1202 1392 1202 1392 1216 1318 c 128,-1,78
 1230 1244 1230 1244 1247 1232 c 128,-1,79
 1264 1220 1264 1220 1340 1228 c 0,80,81
 1416 1237 1416 1237 1426 1217 c 0,82,83
 1440 1198 1440 1198 1409 1130 c 128,-1,84
 1378 1062 1378 1062 1384 1046 c 0,85,86
 1390 1028 1390 1028 1412 1012 c 128,-1,87
 1434 996 1434 996 1458 986 c 0,88,89
 1521 956 1521 956 1521 925 c 0,17,18
EndSplineSet
EndChar

StartChar: uniE030
Encoding: 57392 57392 34
Width: 2048
GlyphClass: 2
Flags: W
LayerCount: 2
Fore
SplineSet
1240 1042 m 128,-1,1
 1180 1042 1180 1042 1139 1000 c 0,2,3
 1097 958 1097 958 1097 898 c 128,-1,4
 1097 838 1097 838 1139 797 c 0,5,6
 1180 755 1180 755 1240 755 c 128,-1,7
 1300 755 1300 755 1342 797 c 0,8,9
 1384 838 1384 838 1384 898 c 128,-1,10
 1384 958 1384 958 1342 1000 c 128,-1,0
 1300 1042 1300 1042 1240 1042 c 128,-1,1
1237 1365 m 0,11,12
 1363 1365 1363 1365 1470 1303 c 128,-1,13
 1577 1241 1577 1241 1639 1134 c 128,-1,14
 1701 1027 1701 1027 1701 901 c 0,15,16
 1701 709 1701 709 1565 573 c 128,-1,17
 1429 437 1429 437 1237 437 c 0,18,19
 1139 437 1139 437 1049 476 c 1,20,-1
 1049 328 l 1,21,-1
 885 328 l 1,22,-1
 885 164 l 1,23,-1
 721 164 l 1,24,-1
 721 0 l 1,25,-1
 346 0 l 1,26,-1
 369 224 l 1,27,-1
 827 682 l 1,28,29
 772 786 772 786 772 906 c 128,-1,30
 772 1026 772 1026 834 1134 c 0,31,32
 896 1241 896 1241 1004 1303 c 128,-1,33
 1112 1365 1112 1365 1237 1365 c 0,11,12
EndSplineSet
EndChar

StartChar: uniE031
Encoding: 57393 57393 35
Width: 2048
GlyphClass: 2
Flags: W
LayerCount: 2
Fore
SplineSet
143 1457 m 1,0,-1
 1638 1457 l 1,1,-1
 1634 1285 l 1,2,-1
 292 1285 l 1,3,-1
 293 308 l 1,4,-1
 143 308 l 1,5,-1
 143 1457 l 1,0,-1
1294 284 m 1,6,-1
 962 631 l 1,7,-1
 909 609 l 1,8,-1
 559 152 l 1,9,-1
 1745 153 l 1,10,-1
 1474 391 l 1,11,-1
 1294 284 l 1,6,-1
410 1149 m 1,12,-1
 1905 1149 l 1,13,-1
 1905 0 l 1,14,-1
 410 0 l 1,15,-1
 410 1149 l 1,12,-1
EndSplineSet
EndChar

StartChar: uniE032
Encoding: 57394 57394 36
Width: 2048
GlyphClass: 2
Flags: W
LayerCount: 2
Fore
SplineSet
1351 165 m 1,0,-1
 1789 331 l 1,1,-1
 1789 1427 l 1,2,-1
 1351 1260 l 1,3,-1
 1351 165 l 1,0,-1
258 164 m 1,4,-1
 696 331 l 1,5,-1
 696 1427 l 1,6,-1
 258 1260 l 1,7,-1
 258 164 l 1,4,-1
1911 1533 m 2,8,-1
 1911 247 l 1,9,-1
 1289 10 l 1,10,-1
 756 223 l 1,11,-1
 202 12 l 2,12,13
 178 4 178 4 157 18 c 128,-1,14
 136 32 136 32 136 58 c 2,15,-1
 136 1344 l 1,16,-1
 757 1581 l 1,17,-1
 1290 1368 l 1,18,-1
 1845 1579 l 2,19,20
 1869 1588 1869 1588 1890 1574 c 128,-1,21
 1911 1560 1911 1560 1911 1533 c 2,8,-1
EndSplineSet
EndChar

StartChar: uniE033
Encoding: 57395 57395 37
Width: 2048
GlyphClass: 2
Flags: W
LayerCount: 2
Fore
SplineSet
1351 1204 m 0,0,1
 1494 1204 1494 1204 1608 1104 c 0,2,3
 1662 1056 1662 1056 1696 981 c 0,4,5
 1729 905 1729 905 1729 813 c 0,6,7
 1729 585 1729 585 1529 412 c 0,8,9
 1451 344 1451 344 1241 172 c 128,-1,10
 1031 0 1031 0 1024 0 c 1,11,-1
 521 414 l 2,12,13
 428 491 428 491 374 593 c 0,14,15
 320 696 320 696 319 790 c 128,-1,16
 318 884 318 884 340 949 c 0,17,18
 379 1068 379 1068 481 1136 c 0,19,20
 582 1204 582 1204 698 1204 c 0,21,22
 889 1204 889 1204 1024 1041 c 1,23,24
 1158 1204 1158 1204 1351 1204 c 0,0,1
EndSplineSet
EndChar

StartChar: uniE040
Encoding: 57408 57408 38
Width: 2048
GlyphClass: 2
Flags: W
LayerCount: 2
Fore
SplineSet
1726 429 m 1,0,-1
 502 429 l 2,1,2
 442 429 442 429 400 471 c 128,-1,3
 358 513 358 513 358 572 c 2,4,-1
 358 601 l 1,5,-1
 1726 601 l 1,6,-1
 1726 429 l 1,0,-1
1726 774 m 1,7,-1
 358 774 l 1,8,-1
 358 946 l 1,9,-1
 1726 946 l 1,10,-1
 1726 774 l 1,7,-1
358 1119 m 1,11,-1
 358 1291 l 1,12,-1
 1582 1291 l 2,13,14
 1642 1291 1642 1291 1684 1249 c 128,-1,15
 1726 1207 1726 1207 1726 1148 c 2,16,-1
 1726 1119 l 1,17,-1
 358 1119 l 1,11,-1
EndSplineSet
EndChar

StartChar: uniE041
Encoding: 57409 57409 39
Width: 2048
GlyphClass: 2
Flags: W
LayerCount: 2
Fore
SplineSet
1503 524 m 1,0,-1
 358 524 l 1,1,-1
 358 767 l 1,2,-1
 1503 767 l 1,3,-1
 1503 524 l 1,0,-1
1058 0 m 1,4,-1
 502 0 l 2,5,6
 442 0 442 0 400 42 c 128,-1,7
 358 84 358 84 358 143 c 2,8,-1
 358 243 l 1,9,-1
 1058 243 l 1,10,-1
 1058 0 l 1,4,-1
358 1048 m 1,11,-1
 358 1291 l 1,12,-1
 1582 1291 l 2,13,14
 1642 1291 1642 1291 1684 1249 c 128,-1,15
 1726 1207 1726 1207 1726 1147 c 2,16,-1
 1726 1048 l 1,17,-1
 358 1048 l 1,11,-1
EndSplineSet
EndChar

StartChar: uniE042
Encoding: 57410 57410 40
Width: 2048
GlyphClass: 2
Flags: W
LayerCount: 2
Fore
SplineSet
340 877 m 1,0,-1
 1484 877 l 1,1,-1
 1484 704 l 1,2,-1
 340 704 l 1,3,-1
 340 877 l 1,0,-1
340 604 m 1,4,-1
 1038 604 l 1,5,-1
 1038 432 l 1,6,-1
 340 432 l 1,7,-1
 340 604 l 1,4,-1
340 244 m 1,8,-1
 1709 244 l 1,9,-1
 1709 0 l 1,10,-1
 484 0 l 2,11,12
 424 0 424 0 382 42 c 128,-1,13
 340 84 340 84 340 144 c 2,14,-1
 340 244 l 1,8,-1
340 1293 m 1,15,-1
 1565 1293 l 2,16,17
 1625 1293 1625 1293 1667 1251 c 128,-1,18
 1709 1209 1709 1209 1709 1149 c 2,19,-1
 1709 1049 l 1,20,-1
 340 1049 l 1,21,-1
 340 1293 l 1,15,-1
EndSplineSet
EndChar

StartChar: article
Encoding: 57600 57600 41
Width: 2048
GlyphClass: 2
Flags: W
LayerCount: 2
Fore
SplineSet
1127 958 m 1,0,-1
 1406 958 l 1,1,-1
 1406 1311 l 1,2,-1
 1127 1311 l 1,3,-1
 1127 958 l 1,0,-1
640 706 m 1,4,-1
 1406 706 l 1,5,-1
 1406 806 l 1,6,-1
 640 806 l 1,7,-1
 640 706 l 1,4,-1
640 453 m 1,8,-1
 1406 453 l 1,9,-1
 1406 551 l 1,10,-1
 640 551 l 1,11,-1
 640 453 l 1,8,-1
640 201 m 1,12,-1
 1406 201 l 1,13,-1
 1406 302 l 1,14,-1
 640 302 l 1,15,-1
 640 201 l 1,12,-1
974 1058 m 1,16,-1
 640 1058 l 1,17,-1
 640 958 l 1,18,-1
 974 958 l 1,19,-1
 974 1058 l 1,16,-1
975 1311 m 1,20,-1
 640 1311 l 1,21,-1
 640 1211 l 1,22,-1
 975 1211 l 1,23,-1
 975 1311 l 1,20,-1
442 1508 m 1,24,-1
 1474 1508 l 2,25,26
 1535 1508 1535 1508 1571 1475 c 128,-1,27
 1607 1442 1607 1442 1607 1381 c 2,28,-1
 1607 0 l 1,29,-1
 572 0 l 2,30,31
 512 0 512 0 477 35 c 128,-1,32
 442 70 442 70 442 129 c 2,33,-1
 442 1508 l 1,24,-1
EndSplineSet
EndChar

StartChar: articleCheck
Encoding: 57601 57601 42
Width: 2048
GlyphClass: 2
Flags: W
LayerCount: 2
Fore
SplineSet
1367 954 m 1,0,-1
 1367 1304 l 1,1,-1
 1088 1304 l 1,2,-1
 1088 954 l 1,3,-1
 1367 954 l 1,0,-1
937 1205 m 1,4,-1
 937 1305 l 1,5,-1
 605 1305 l 1,6,-1
 605 1205 l 1,7,-1
 937 1205 l 1,4,-1
937 954 m 1,8,-1
 937 1053 l 1,9,-1
 605 1053 l 1,10,-1
 605 954 l 1,11,-1
 937 954 l 1,8,-1
1369 702 m 1,12,-1
 1369 802 l 1,13,-1
 605 802 l 1,14,-1
 605 702 l 1,15,-1
 1369 702 l 1,12,-1
406 1501 m 1,16,-1
 1423 1501 l 2,17,18
 1482 1501 1482 1501 1524 1459 c 128,-1,19
 1566 1417 1566 1417 1566 1358 c 2,20,-1
 1566 546 l 1,21,-1
 1316 296 l 1,22,-1
 1161 450 l 1,23,-1
 1369 450 l 1,24,-1
 1369 550 l 1,25,-1
 605 550 l 1,26,-1
 605 450 l 1,27,-1
 935 450 l 1,28,-1
 853 368 l 1,29,-1
 776 302 l 1,30,-1
 605 302 l 1,31,-1
 605 202 l 1,32,-1
 1007 202 l 1,33,-1
 911 298 l 1,34,-1
 1040 427 l 1,35,-1
 1308 160 l 1,36,-1
 1757 607 l 2,37,38
 1790 642 1790 642 1838 642 c 128,-1,39
 1886 642 1886 642 1920 607 c 2,40,-1
 1967 560 l 1,41,-1
 1566 159 l 1,42,-1
 1566 0 l 1,43,-1
 1407 0 l 1,44,-1
 1308 -99 l 1,45,-1
 1209 0 l 1,46,-1
 550 0 l 2,47,48
 490 0 490 0 448 42 c 128,-1,49
 406 84 406 84 406 143 c 2,50,-1
 406 1501 l 1,16,-1
EndSplineSet
EndChar

StartChar: articleSearch
Encoding: 57602 57602 43
Width: 2048
GlyphClass: 2
Flags: W
LayerCount: 2
Fore
SplineSet
1369 950 m 1,0,-1
 1369 1300 l 1,1,-1
 1090 1300 l 1,2,-1
 1090 950 l 1,3,-1
 1369 950 l 1,0,-1
939 1201 m 1,4,-1
 939 1301 l 1,5,-1
 607 1301 l 1,6,-1
 607 1201 l 1,7,-1
 939 1201 l 1,4,-1
939 950 m 1,8,-1
 939 1049 l 1,9,-1
 607 1049 l 1,10,-1
 607 950 l 1,11,-1
 939 950 l 1,8,-1
1381 698 m 128,-1,13
 1533 698 1533 698 1633 597 c 128,-1,14
 1733 496 1733 496 1747 368 c 128,-1,15
 1761 240 1761 240 1690 133 c 1,16,-1
 1689 132 l 1,17,-1
 1934 -114 l 1,18,-1
 1893 -155 l 2,19,20
 1864 -184 1864 -184 1823 -184 c 128,-1,21
 1782 -184 1782 -184 1754 -155 c 2,22,-1
 1578 21 l 1,23,24
 1492 -37 1492 -37 1379 -37 c 0,25,26
 1227 -37 1227 -37 1119 71 c 0,27,28
 1012 179 1012 179 1012 331 c 128,-1,29
 1012 483 1012 483 1120 591 c 0,30,12
 1229 698 1229 698 1381 698 c 128,-1,13
1380 542 m 128,-1,32
 1295 542 1295 542 1231 480 c 0,33,34
 1226 477 1226 477 1223 472 c 0,35,36
 1167 409 1167 409 1169 325 c 0,37,38
 1170 240 1170 240 1232 180 c 128,-1,39
 1294 120 1294 120 1380 120 c 128,-1,40
 1466 120 1466 120 1528 182 c 128,-1,41
 1590 244 1590 244 1590 332 c 128,-1,42
 1590 420 1590 420 1528 480 c 0,43,31
 1465 542 1465 542 1380 542 c 128,-1,32
607 546 m 1,44,-1
 607 446 l 1,45,-1
 927 446 l 1,46,47
 908 370 908 370 914 298 c 1,48,-1
 607 298 l 1,49,-1
 607 198 l 1,50,-1
 931 198 l 1,51,52
 964 84 964 84 1048 0 c 1,53,-1
 1053 -4 l 1,54,-1
 552 -4 l 2,55,56
 492 -4 492 -4 450 38 c 128,-1,57
 408 80 408 80 408 139 c 2,58,-1
 408 1497 l 1,59,-1
 1425 1497 l 2,60,61
 1484 1497 1484 1497 1526 1455 c 128,-1,62
 1568 1413 1568 1413 1568 1354 c 2,63,-1
 1568 758 l 1,64,65
 1479 798 1479 798 1380 798 c 2,66,-1
 607 798 l 1,67,-1
 607 698 l 1,68,-1
 1091 698 l 1,69,70
 1009 634 1009 634 965 546 c 1,71,-1
 607 546 l 1,44,-1
EndSplineSet
EndChar

StartChar: uniE300
Encoding: 58112 58112 44
Width: 2048
GlyphClass: 2
Flags: W
LayerCount: 2
Fore
SplineSet
1115 906 m 1,0,-1
 1024 1160 l 1,1,-1
 934 906 l 1,2,-1
 690 1022 l 1,3,-1
 806 778 l 1,4,-1
 552 688 l 1,5,-1
 806 597 l 1,6,-1
 690 353 l 1,7,-1
 934 469 l 1,8,-1
 1024 215 l 1,9,-1
 1115 469 l 1,10,-1
 1358 353 l 1,11,-1
 1243 597 l 1,12,-1
 1497 688 l 1,13,-1
 1243 778 l 1,14,-1
 1358 1022 l 1,15,-1
 1115 906 l 1,0,-1
1048 1375 m 0,16,17
 1212 1375 1212 1375 1369 1283 c 0,18,19
 1527 1190 1527 1190 1619 1032 c 128,-1,20
 1711 874 1711 874 1711 688 c 128,-1,21
 1711 502 1711 502 1619 342 c 0,22,23
 1527 184 1527 184 1369 92 c 0,24,25
 1212 0 1212 0 1048 0 c 128,-1,26
 884 0 884 0 757 54 c 128,-1,27
 630 108 630 108 538 201 c 0,28,29
 446 292 446 292 392 420 c 128,-1,30
 338 548 338 548 337 688 c 0,31,32
 338 828 338 828 392 955 c 128,-1,33
 446 1082 446 1082 538 1174 c 128,-1,34
 630 1266 630 1266 757 1320 c 128,-1,35
 884 1374 884 1374 1048 1375 c 0,16,17
EndSplineSet
EndChar

StartChar: uniE301
Encoding: 58113 58113 45
Width: 2048
GlyphClass: 2
Flags: W
LayerCount: 2
Fore
SplineSet
1026 1103 m 128,-1,1
 974 1103 974 1103 937 1066 c 128,-1,2
 900 1029 900 1029 900 977 c 128,-1,3
 900 925 900 925 937 888 c 128,-1,4
 974 851 974 851 1026 851 c 128,-1,5
 1078 851 1078 851 1115 888 c 128,-1,6
 1152 925 1152 925 1152 977 c 128,-1,7
 1152 1029 1152 1029 1115 1066 c 128,-1,0
 1078 1103 1078 1103 1026 1103 c 128,-1,1
1092 90 m 1,8,9
 1142 78 1142 78 1166 48 c 128,-1,10
 1190 18 1190 18 1191 -16 c 0,11,12
 1193 -50 1193 -50 1163 -90 c 128,-1,13
 1133 -130 1133 -130 1093 -174 c 0,14,15
 1053 -216 1053 -216 1041 -249 c 1,16,17
 1030 -216 1030 -216 990 -174 c 128,-1,18
 950 -132 950 -132 920 -90 c 0,19,20
 890 -50 890 -50 892 -16 c 128,-1,21
 894 18 894 18 918 46 c 0,22,23
 942 76 942 76 990 88 c 1,24,25
 957 70 957 70 955 40 c 0,26,27
 954 10 954 10 994 -18 c 128,-1,28
 1034 -46 1034 -46 1041 -69 c 1,29,30
 1048 -48 1048 -48 1071 -32 c 128,-1,31
 1094 -16 1094 -16 1112 0 c 128,-1,32
 1130 16 1130 16 1127 44 c 0,33,34
 1125 72 1125 72 1092 90 c 1,8,9
1027 1441 m 1,35,36
 1125 1394 1125 1394 1193 1317 c 0,37,38
 1316 1178 1316 1178 1337 970 c 128,-1,39
 1358 762 1358 762 1306 528 c 1,40,-1
 1443 180 l 1,41,-1
 1221 252 l 1,42,43
 1194 183 1194 183 1172 139 c 1,44,-1
 876 139 l 1,45,46
 853 185 853 185 828 250 c 1,47,-1
 605 182 l 1,48,-1
 740 547 l 1,49,50
 632 1060 632 1060 864 1320 c 0,51,52
 931 1395 931 1395 1027 1441 c 1,35,36
EndSplineSet
EndChar

StartChar: uniE500
Encoding: 58624 58624 46
Width: 2048
GlyphClass: 2
Flags: W
LayerCount: 2
Fore
SplineSet
572 1081 m 0,0,1
 518 1081 518 1081 519 1100 c 2,2,-1
 519 1199 l 2,3,4
 519 1218 519 1218 547 1232 c 128,-1,5
 575 1246 575 1246 614 1246 c 2,6,-1
 803 1263 l 1,7,-1
 872 1341 l 1,8,-1
 1168 1341 l 1,9,-1
 1240 1261 l 1,10,-1
 1435 1246 l 2,11,12
 1474 1246 1474 1246 1502 1232 c 128,-1,13
 1530 1218 1530 1218 1529 1199 c 2,14,-1
 1529 1100 l 2,15,16
 1528 1081 1528 1081 1476 1081 c 0,17,18
 1024 1081 1024 1081 572 1081 c 0,0,1
1324 -5 m 2,19,-1
 725 -5 l 2,20,21
 698 -6 698 -6 678 14 c 128,-1,22
 658 34 658 34 658 61 c 2,23,-1
 543 944 l 1,24,-1
 1506 944 l 1,25,-1
 1392 61 l 2,26,27
 1392 35 1392 35 1372 15 c 128,-1,28
 1352 -5 1352 -5 1324 -5 c 2,19,-1
EndSplineSet
EndChar

StartChar: uniE501
Encoding: 58625 58625 47
Width: 2048
GlyphClass: 2
Flags: W
LayerCount: 2
Fore
SplineSet
1218 0 m 2,0,-1
 728 0 l 2,1,2
 682 0 682 0 668 46 c 0,3,4
 660 73 660 73 657 97 c 0,5,6
 655 122 655 122 654 127 c 1,7,-1
 1475 947 l 1,8,-1
 1509 947 l 1,9,-1
 1393 65 l 2,10,11
 1385 16 1385 16 1342 6 c 0,12,13
 1300 -4 1300 -4 1262 -2 c 0,14,15
 1223 0 1223 0 1218 0 c 2,0,-1
524 1101 m 2,16,-1
 524 1200 l 2,17,18
 524 1218 524 1218 552 1232 c 128,-1,19
 580 1246 580 1246 619 1246 c 2,20,-1
 807 1262 l 1,21,-1
 875 1340 l 1,22,-1
 1173 1340 l 1,23,-1
 1243 1262 l 1,24,-1
 1408 1250 l 1,25,-1
 1625 1468 l 1,26,-1
 1730 1365 l 1,27,-1
 369 -38 l 1,28,-1
 244 87 l 1,29,-1
 611 454 l 1,30,-1
 546 945 l 1,31,-1
 1103 945 l 1,32,-1
 1240 1082 l 1,33,-1
 619 1082 l 1,34,-1
 576 1081 l 2,35,36
 524 1081 524 1081 524 1101 c 2,16,-1
EndSplineSet
EndChar

StartChar: uniE502
Encoding: 58626 58626 48
Width: 2048
GlyphClass: 2
Flags: W
LayerCount: 2
Fore
SplineSet
1469 569 m 1,0,-1
 1469 813 l 1,1,-1
 577 813 l 1,2,-1
 577 569 l 1,3,-1
 1469 569 l 1,0,-1
1024 1380 m 128,-1,5
 1211 1380 1211 1380 1370 1288 c 0,6,7
 1530 1196 1530 1196 1622 1036 c 0,8,9
 1714 877 1714 877 1714 690 c 128,-1,10
 1714 503 1714 503 1622 344 c 0,11,12
 1530 184 1530 184 1370 92 c 0,13,14
 1211 0 1211 0 1024 0 c 128,-1,15
 837 0 837 0 678 92 c 0,16,17
 518 184 518 184 426 344 c 0,18,19
 334 503 334 503 334 690 c 128,-1,20
 334 877 334 877 426 1036 c 0,21,22
 518 1196 518 1196 678 1288 c 0,23,4
 837 1380 837 1380 1024 1380 c 128,-1,5
EndSplineSet
EndChar

StartChar: uniE503
Encoding: 58627 58627 49
Width: 2048
GlyphClass: 2
Flags: W
LayerCount: 2
Fore
SplineSet
1469 566 m 1,0,-1
 1469 811 l 1,1,-1
 1383 811 l 1,2,-1
 1617 1044 l 1,3,4
 1720 872 1720 872 1712 666 c 128,-1,5
 1704 460 1704 460 1597 305 c 0,6,7
 1489 150 1489 150 1331 72 c 0,8,9
 1172 -6 1172 -6 996 0 c 128,-1,10
 820 6 820 6 669 96 c 1,11,-1
 1139 566 l 1,12,-1
 1469 566 l 1,0,-1
576 810 m 1,13,-1
 576 566 l 1,14,-1
 755 566 l 1,15,-1
 999 810 l 1,16,-1
 576 810 l 1,13,-1
1433 1242 m 1,17,-1
 1708 1517 l 1,18,-1
 1829 1396 l 1,19,-1
 394 -41 l 1,20,-1
 274 83 l 1,21,-1
 466 278 l 1,22,23
 323 470 323 470 333 716 c 128,-1,24
 343 962 343 962 501 1143 c 0,25,26
 616 1274 616 1274 780 1334 c 128,-1,27
 944 1394 944 1394 1118 1369 c 0,28,29
 1292 1345 1292 1345 1433 1242 c 1,17,-1
EndSplineSet
EndChar

StartChar: uniE504
Encoding: 58628 58628 50
Width: 2048
GlyphClass: 2
Flags: W
LayerCount: 2
Fore
SplineSet
633 52 m 2,0,1
 632 21 632 21 604 9 c 128,-1,2
 576 -3 576 -3 548 0 c 2,3,-1
 520 3 l 1,4,-1
 520 1343 l 1,5,6
 662 1356 662 1356 886 1284 c 0,7,8
 974 1256 974 1256 1056 1216 c 128,-1,9
 1138 1176 1138 1176 1214 1167 c 0,10,11
 1402 1145 1402 1145 1528 1271 c 1,12,-1
 1528 557 l 1,13,14
 1482 480 1482 480 1378 444 c 0,15,16
 1239 395 1239 395 1058 499 c 1,17,18
 790 675 790 675 633 623 c 1,19,-1
 633 52 l 2,0,1
EndSplineSet
EndChar

StartChar: uniE505
Encoding: 58629 58629 51
Width: 2048
GlyphClass: 2
Flags: W
LayerCount: 2
Fore
SplineSet
1106 554 m 1,0,-1
 1670 1121 l 1,1,-1
 1670 552 l 1,2,3
 1624 475 1624 475 1520 440 c 0,4,5
 1380 393 1380 393 1202 497 c 0,6,7
 1155 528 1155 528 1106 554 c 1,0,-1
778 50 m 2,8,9
 778 20 778 20 750 8 c 128,-1,10
 722 -4 722 -4 694 -2 c 2,11,-1
 666 1 l 1,12,-1
 666 116 l 1,13,-1
 778 227 l 1,14,-1
 778 50 l 2,8,9
1331 1166 m 1,15,-1
 1642 1475 l 1,16,-1
 1761 1356 l 1,17,-1
 373 -32 l 1,18,-1
 254 88 l 1,19,-1
 666 503 l 1,20,-1
 666 1340 l 1,21,22
 856 1351 856 1351 1108 1243 c 0,23,24
 1254 1181 1254 1181 1331 1166 c 1,15,-1
EndSplineSet
EndChar

StartChar: uniE506
Encoding: 58630 58630 52
Width: 2048
GlyphClass: 2
Flags: W
LayerCount: 2
Fore
SplineSet
1345 685 m 1,0,-1
 843 976 l 1,1,-1
 843 395 l 1,2,-1
 1345 685 l 1,0,-1
1025 1380 m 128,-1,4
 1212 1380 1212 1380 1371 1288 c 128,-1,5
 1530 1196 1530 1196 1622 1036 c 0,6,7
 1714 877 1714 877 1715 690 c 0,8,9
 1714 503 1714 503 1622 344 c 0,10,11
 1530 184 1530 184 1371 92 c 128,-1,12
 1212 0 1212 0 1025 0 c 128,-1,13
 838 0 838 0 678 92 c 128,-1,14
 518 184 518 184 426 344 c 0,15,16
 334 503 334 503 334 690 c 128,-1,17
 334 877 334 877 426 1036 c 0,18,19
 518 1196 518 1196 678 1288 c 128,-1,3
 838 1380 838 1380 1025 1380 c 128,-1,4
EndSplineSet
EndChar

StartChar: uniE507
Encoding: 58631 58631 53
Width: 2048
GlyphClass: 2
Flags: W
LayerCount: 2
Fore
SplineSet
1281 432 m 1,0,-1
 1281 949 l 1,1,-1
 765 949 l 1,2,-1
 765 432 l 1,3,-1
 1281 432 l 1,0,-1
1024 1380 m 128,-1,5
 1211 1380 1211 1380 1370 1288 c 0,6,7
 1530 1196 1530 1196 1622 1036 c 0,8,9
 1714 877 1714 877 1714 690 c 128,-1,10
 1714 503 1714 503 1622 344 c 0,11,12
 1530 184 1530 184 1370 92 c 0,13,14
 1211 0 1211 0 1024 0 c 128,-1,15
 837 0 837 0 678 92 c 0,16,17
 518 184 518 184 426 344 c 0,18,19
 334 503 334 503 334 690 c 128,-1,20
 334 877 334 877 426 1036 c 0,21,22
 518 1196 518 1196 678 1288 c 0,23,4
 837 1380 837 1380 1024 1380 c 128,-1,5
EndSplineSet
EndChar

StartChar: uniE508
Encoding: 58632 58632 54
Width: 2048
GlyphClass: 2
Flags: W
LayerCount: 2
Fore
SplineSet
1196 950 m 2,0,1
 1196 1150 1196 1150 1024 1150 c 128,-1,2
 852 1150 852 1150 851 951 c 2,3,-1
 851 774 l 1,4,-1
 1196 774 l 1,5,-1
 1196 950 l 2,0,1
1408 953 m 2,6,-1
 1408 774 l 1,7,-1
 1583 774 l 1,8,-1
 1583 0 l 1,9,-1
 608 0 l 2,10,11
 549 0 549 0 507 42 c 128,-1,12
 465 84 465 84 465 144 c 2,13,-1
 465 774 l 1,14,-1
 640 774 l 1,15,-1
 640 952 l 2,16,17
 640 1069 640 1069 689 1167 c 128,-1,18
 738 1265 738 1265 826 1322 c 128,-1,19
 914 1379 914 1379 1024 1379 c 0,20,21
 1188 1380 1188 1380 1298 1256 c 128,-1,22
 1408 1132 1408 1132 1408 953 c 2,6,-1
EndSplineSet
EndChar

StartChar: uniE600
Encoding: 58880 58880 55
Width: 2048
GlyphClass: 2
Flags: W
LayerCount: 2
Fore
SplineSet
1024 1376 m 128,-1,1
 1118 1376 1118 1376 1185 1326 c 0,2,3
 1316 1230 1316 1230 1316 1046 c 0,4,5
 1316 863 1316 863 1230 744 c 128,-1,6
 1144 625 1144 625 1024 625 c 128,-1,7
 904 625 904 625 818 744 c 128,-1,8
 732 863 732 863 732 1046 c 0,9,10
 732 1230 732 1230 862 1326 c 0,11,0
 930 1376 930 1376 1024 1376 c 128,-1,1
1657 717 m 1,12,-1
 1657 0 l 1,13,-1
 535 0 l 2,14,15
 476 0 476 0 434 42 c 128,-1,16
 392 84 392 84 392 144 c 2,17,-1
 392 717 l 1,18,-1
 714 717 l 1,19,20
 755 632 755 632 844 578 c 128,-1,21
 933 524 933 524 1019 524 c 0,22,23
 1104 524 1104 524 1196 576 c 128,-1,24
 1288 628 1288 628 1335 717 c 1,25,-1
 1657 717 l 1,12,-1
EndSplineSet
EndChar

StartChar: uniE601
Encoding: 58881 58881 56
Width: 2048
GlyphClass: 2
Flags: W
LayerCount: 2
Fore
SplineSet
1215 902 m 128,-1,1
 1179 902 1179 902 1154 877 c 128,-1,2
 1129 852 1129 852 1129 816 c 128,-1,3
 1129 780 1129 780 1154 756 c 0,4,5
 1179 730 1179 730 1215 730 c 128,-1,6
 1251 730 1251 730 1276 755 c 128,-1,7
 1301 780 1301 780 1301 816 c 128,-1,8
 1301 852 1301 852 1276 877 c 128,-1,0
 1251 902 1251 902 1215 902 c 128,-1,1
833 902 m 128,-1,10
 797 902 797 902 772 876 c 128,-1,11
 747 850 747 850 747 814 c 128,-1,12
 747 778 747 778 772 754 c 128,-1,13
 797 730 797 730 833 730 c 128,-1,14
 869 730 869 730 894 755 c 128,-1,15
 919 780 919 780 919 816 c 128,-1,16
 919 852 919 852 894 876 c 0,17,9
 869 902 869 902 833 902 c 128,-1,10
702 550 m 128,-1,19
 680 550 680 550 664 534 c 0,20,21
 649 518 649 518 649 496 c 128,-1,22
 649 474 649 474 665 458 c 0,23,24
 750 372 750 372 884 340 c 128,-1,25
 1018 308 1018 308 1152 336 c 128,-1,26
 1286 364 1286 364 1378 443 c 0,27,28
 1398 460 1398 460 1404 484 c 128,-1,29
 1410 508 1410 508 1393 526 c 128,-1,30
 1376 544 1376 544 1354 546 c 128,-1,31
 1332 548 1332 548 1316 533 c 0,32,33
 1248 468 1248 468 1138 444 c 128,-1,34
 1028 420 1028 420 918 444 c 128,-1,35
 808 468 808 468 740 535 c 0,36,18
 724 550 724 550 702 550 c 128,-1,19
554 1282 m 2,37,-1
 1665 1282 l 1,38,-1
 1664 162 l 2,39,40
 1664 140 1664 140 1652 108 c 0,41,42
 1614 1 1614 1 1495 1 c 2,43,-1
 385 0 l 1,44,-1
 383 1119 l 2,45,46
 383 1176 383 1176 425 1229 c 128,-1,47
 467 1282 467 1282 554 1282 c 2,37,-1
EndSplineSet
EndChar

StartChar: uniE602
Encoding: 58882 58882 57
Width: 2048
GlyphClass: 2
Flags: W
LayerCount: 2
Fore
SplineSet
1299 742 m 128,-1,1
 1374 742 1374 742 1428 786 c 128,-1,2
 1482 830 1482 830 1481 892 c 1,3,4
 1416 828 1416 828 1300 828 c 128,-1,5
 1184 828 1184 828 1117 892 c 1,6,7
 1116 830 1116 830 1170 786 c 128,-1,0
 1224 742 1224 742 1299 742 c 128,-1,1
770 742 m 0,8,9
 846 742 846 742 898 786 c 128,-1,10
 950 830 950 830 950 892 c 1,11,12
 884 828 884 828 770 828 c 128,-1,13
 656 828 656 828 588 892 c 1,14,15
 588 830 588 830 642 786 c 128,-1,16
 696 742 696 742 770 742 c 0,8,9
789 500 m 0,17,18
 772 512 772 512 750 507 c 128,-1,19
 728 502 728 502 716 484 c 128,-1,20
 704 466 704 466 708 444 c 128,-1,21
 712 422 712 422 732 410 c 0,22,23
 860 329 860 329 1024 327 c 128,-1,24
 1188 325 1188 325 1319 402 c 0,25,26
 1337 412 1337 412 1343 434 c 128,-1,27
 1349 456 1349 456 1340 475 c 0,28,29
 1330 494 1330 494 1308 500 c 128,-1,30
 1286 506 1286 506 1267 494 c 0,31,32
 1165 432 1165 432 1027 434 c 128,-1,33
 889 436 889 436 789 500 c 0,17,18
554 1282 m 2,34,-1
 1665 1282 l 1,35,-1
 1665 163 l 2,36,37
 1665 106 1665 106 1623 53 c 128,-1,38
 1581 0 1581 0 1494 0 c 2,39,-1
 383 0 l 1,40,-1
 383 1119 l 2,41,42
 383 1176 383 1176 425 1229 c 128,-1,43
 467 1282 467 1282 554 1282 c 2,34,-1
EndSplineSet
EndChar

StartChar: uniE700
Encoding: 59136 59136 58
Width: 2048
GlyphClass: 2
Flags: W
LayerCount: 2
Fore
SplineSet
1600 457 m 1,0,-1
 1419 997 l 1,1,-1
 1236 457 l 1,2,-1
 1600 457 l 1,0,-1
508 1413 m 1,3,-1
 690 1413 l 1,4,-1
 690 1173 l 1,5,-1
 1171 1173 l 1,6,-1
 1112 993 l 1,7,-1
 690 993 l 1,8,9
 743 787 743 787 877 639 c 0,10,11
 907 606 907 606 961 552 c 1,12,-1
 899 372 l 1,13,14
 819 452 819 452 804 468 c 0,15,16
 790 485 790 485 754 523 c 128,-1,17
 718 561 718 561 704 581 c 128,-1,18
 690 601 690 601 656 645 c 0,19,20
 623 689 623 689 597 758 c 1,21,22
 514 492 514 492 322 336 c 0,23,24
 246 274 246 274 145 219 c 1,25,-1
 122 288 l 2,26,27
 106 336 106 336 123 382 c 128,-1,28
 140 428 140 428 183 455 c 1,29,30
 261 517 261 517 308 563 c 0,31,32
 354 609 354 609 390 668 c 128,-1,33
 426 727 426 727 446 779 c 128,-1,34
 466 831 466 831 501 933 c 1,35,-1
 508 993 l 1,36,-1
 83 993 l 1,37,-1
 83 1173 l 1,38,-1
 508 1173 l 1,39,-1
 508 1413 l 1,3,-1
1437 1173 m 2,40,41
 1484 1173 1484 1173 1521 1149 c 128,-1,42
 1558 1125 1558 1125 1573 1082 c 2,43,-1
 1964 -79 l 1,44,-1
 1782 -79 l 1,45,-1
 1660 279 l 1,46,-1
 1174 279 l 1,47,-1
 1053 -79 l 1,48,-1
 871 -79 l 1,49,-1
 1296 1173 l 1,50,-1
 1437 1173 l 2,40,41
EndSplineSet
EndChar

StartChar: uniE701
Encoding: 59137 59137 59
Width: 2048
GlyphClass: 2
Flags: W
LayerCount: 2
Fore
SplineSet
1666 676 m 1,0,-1
 1666 826 l 1,1,-1
 1516 826 l 1,2,-1
 1516 676 l 1,3,-1
 1666 676 l 1,0,-1
1441 676 m 1,4,-1
 1441 826 l 1,5,-1
 1291 826 l 1,6,-1
 1291 676 l 1,7,-1
 1441 676 l 1,4,-1
1666 414 m 1,8,-1
 1666 564 l 1,9,-1
 1516 564 l 1,10,-1
 1516 414 l 1,11,-1
 1666 414 l 1,8,-1
1216 676 m 1,12,-1
 1216 826 l 1,13,-1
 1066 826 l 1,14,-1
 1066 676 l 1,15,-1
 1216 676 l 1,12,-1
1441 414 m 1,16,-1
 1441 564 l 1,17,-1
 1291 564 l 1,18,-1
 1291 414 l 1,19,-1
 1441 414 l 1,16,-1
1666 152 m 1,20,-1
 1666 302 l 1,21,-1
 1516 302 l 1,22,-1
 1516 152 l 1,23,-1
 1666 152 l 1,20,-1
991 826 m 1,24,-1
 841 826 l 1,25,-1
 841 678 l 1,26,-1
 991 676 l 1,27,-1
 991 826 l 1,24,-1
1216 414 m 1,28,-1
 1216 564 l 1,29,-1
 1066 564 l 1,30,-1
 1066 414 l 1,31,-1
 1216 414 l 1,28,-1
766 678 m 1,32,-1
 766 826 l 1,33,-1
 616 826 l 1,34,-1
 616 678 l 1,35,-1
 766 678 l 1,32,-1
991 414 m 1,36,-1
 991 564 l 1,37,-1
 841 564 l 1,38,-1
 841 414 l 1,39,-1
 991 414 l 1,36,-1
1441 152 m 1,40,-1
 1441 302 l 1,41,-1
 616 302 l 1,42,-1
 616 152 l 1,43,-1
 1441 152 l 1,40,-1
541 677 m 1,44,-1
 541 826 l 1,45,-1
 392 826 l 1,46,-1
 392 677 l 1,47,-1
 541 677 l 1,44,-1
766 414 m 1,48,-1
 766 564 l 1,49,-1
 616 564 l 1,50,-1
 616 414 l 1,51,-1
 766 414 l 1,48,-1
542 414 m 1,52,-1
 542 564 l 1,53,-1
 392 564 l 1,54,-1
 392 414 l 1,55,-1
 542 414 l 1,52,-1
542 152 m 1,56,-1
 542 302 l 1,57,-1
 393 302 l 1,58,-1
 393 152 l 1,59,-1
 542 152 l 1,56,-1
240 977 m 1,60,-1
 1673 977 l 2,61,62
 1732 976 1732 976 1774 934 c 128,-1,63
 1816 892 1816 892 1817 833 c 2,64,-1
 1817 0 l 1,65,-1
 384 0 l 2,66,67
 324 0 324 0 282 42 c 128,-1,68
 240 84 240 84 240 144 c 2,69,-1
 240 977 l 1,60,-1
EndSplineSet
EndChar

StartChar: uniE800
Encoding: 59392 59392 60
Width: 2048
GlyphClass: 2
Flags: W
LayerCount: 2
Fore
SplineSet
366 361 m 1,0,1
 392 343 392 343 444 291 c 1,2,-1
 1448 1199 l 1,3,4
 1421 1247 1421 1247 1367 1265 c 1,5,-1
 366 361 l 1,0,1
258 402 m 1,6,-1
 1371 1400 l 1,7,8
 1496 1379 1496 1379 1592 1276 c 128,-1,9
 1688 1173 1688 1173 1695 1046 c 1,10,-1
 581 44 l 1,11,-1
 169 0 l 1,12,-1
 258 402 l 1,6,-1
EndSplineSet
EndChar

StartChar: uniE801
Encoding: 59393 59393 61
Width: 2048
GlyphClass: 2
Flags: W
LayerCount: 2
Fore
SplineSet
1161 1502 m 0,0,1
 1276 1502 1276 1502 1394 1452 c 128,-1,2
 1512 1402 1512 1402 1560 1313 c 1,3,4
 1207 1304 1207 1304 996 1046 c 1,5,-1
 1109 875 l 1,6,-1
 536 897 l 1,7,-1
 578 1476 l 1,8,-1
 727 1308 l 1,9,10
 945 1502 945 1502 1161 1502 c 0,0,1
358 359 m 1,11,12
 396 334 396 334 435 290 c 1,13,-1
 981 782 l 1,14,-1
 1300 772 l 1,15,-1
 1126 1031 l 1,16,17
 1220 1126 1220 1126 1348 1178 c 128,-1,18
 1476 1230 1476 1230 1617 1238 c 1,19,20
 1683 1101 1683 1101 1688 1047 c 1,21,-1
 573 43 l 1,22,-1
 161 -2 l 1,23,-1
 250 400 l 1,24,25
 300 445 300 445 460 589 c 128,-1,26
 620 733 620 733 688 794 c 1,27,-1
 835 788 l 1,28,-1
 358 359 l 1,11,12
EndSplineSet
EndChar

StartChar: uniE802
Encoding: 59394 59394 62
Width: 2048
GlyphClass: 2
Flags: W
LayerCount: 2
Fore
SplineSet
358 359 m 1,0,1
 396 334 396 334 435 290 c 1,2,-1
 981 782 l 1,3,-1
 1300 772 l 1,4,-1
 1126 1031 l 1,5,6
 1220 1126 1220 1126 1348 1178 c 128,-1,7
 1476 1230 1476 1230 1617 1238 c 1,8,9
 1683 1101 1683 1101 1688 1047 c 1,10,-1
 573 43 l 1,11,-1
 161 -2 l 1,12,-1
 250 400 l 1,13,14
 300 445 300 445 460 589 c 128,-1,15
 620 733 620 733 688 794 c 1,16,-1
 835 788 l 1,17,-1
 358 359 l 1,0,1
EndSplineSet
EndChar

StartChar: uniE803
Encoding: 59395 59395 63
Width: 2048
GlyphClass: 2
Flags: W
LayerCount: 2
Fore
SplineSet
1161 1502 m 0,0,1
 1276 1502 1276 1502 1394 1452 c 128,-1,2
 1512 1402 1512 1402 1560 1313 c 1,3,4
 1207 1304 1207 1304 996 1046 c 1,5,-1
 1109 875 l 1,6,-1
 536 897 l 1,7,-1
 578 1476 l 1,8,-1
 727 1308 l 1,9,10
 945 1502 945 1502 1161 1502 c 0,0,1
EndSplineSet
EndChar

StartChar: uniE804
Encoding: 59396 59396 64
Width: 2048
GlyphClass: 2
Flags: W
LayerCount: 2
Fore
SplineSet
1468 1302 m 128,-1,1
 1380 1302 1380 1302 1380 1201 c 2,2,-1
 1381 1112 l 1,3,-1
 1556 1112 l 1,4,-1
 1555 1201 l 2,5,0
 1556 1302 1556 1302 1468 1302 c 128,-1,1
1468 1419 m 0,6,7
 1551 1419 1551 1419 1607 1356 c 128,-1,8
 1663 1293 1663 1293 1663 1202 c 2,9,-1
 1663 1112 l 1,10,-1
 1751 1112 l 1,11,-1
 1751 720 l 1,12,-1
 1185 720 l 1,13,-1
 1185 1112 l 1,14,-1
 1274 1112 l 1,15,-1
 1274 1203 l 2,16,17
 1274 1294 1274 1294 1330 1356 c 128,-1,18
 1386 1418 1386 1418 1468 1419 c 0,6,7
1088 622 m 1,19,-1
 1226 622 l 1,20,-1
 582 42 l 1,21,-1
 169 -3 l 1,22,-1
 257 400 l 1,23,-1
 1088 1143 l 1,24,-1
 1088 1010 l 1,25,-1
 366 358 l 1,26,27
 392 340 392 340 444 288 c 1,28,-1
 1088 870 l 1,29,-1
 1088 622 l 1,19,-1
EndSplineSet
EndChar

StartChar: uniE805
Encoding: 59397 59397 65
Width: 2048
GlyphClass: 2
Flags: W
LayerCount: 2
Fore
SplineSet
1088 622 m 1,0,-1
 1226 622 l 1,1,-1
 582 42 l 1,2,-1
 169 -3 l 1,3,-1
 257 400 l 1,4,-1
 1088 1143 l 1,5,-1
 1088 1010 l 1,6,-1
 366 358 l 1,7,8
 392 340 392 340 444 288 c 1,9,-1
 1088 870 l 1,10,-1
 1088 622 l 1,0,-1
EndSplineSet
EndChar

StartChar: uniE806
Encoding: 59398 59398 66
Width: 2048
GlyphClass: 2
Flags: W
LayerCount: 2
Fore
SplineSet
1468 1302 m 128,-1,1
 1380 1302 1380 1302 1380 1201 c 2,2,-1
 1381 1112 l 1,3,-1
 1556 1112 l 1,4,-1
 1555 1201 l 2,5,0
 1556 1302 1556 1302 1468 1302 c 128,-1,1
1468 1419 m 0,6,7
 1551 1419 1551 1419 1607 1356 c 128,-1,8
 1663 1293 1663 1293 1663 1202 c 2,9,-1
 1663 1112 l 1,10,-1
 1751 1112 l 1,11,-1
 1751 720 l 1,12,-1
 1185 720 l 1,13,-1
 1185 1112 l 1,14,-1
 1274 1112 l 1,15,-1
 1274 1203 l 2,16,17
 1274 1294 1274 1294 1330 1356 c 128,-1,18
 1386 1418 1386 1418 1468 1419 c 0,6,7
EndSplineSet
EndChar

StartChar: uniE810
Encoding: 59408 59408 67
Width: 2048
GlyphClass: 2
Flags: W
LayerCount: 2
Fore
SplineSet
294 1277 m 1,0,-1
 1875 1277 l 1,1,-1
 1875 161 l 2,2,3
 1873 144 1873 144 1871 137 c 0,4,5
 1869 129 1869 129 1866 116 c 0,6,7
 1863 102 1863 102 1857 90 c 0,8,9
 1850 78 1850 78 1842 64 c 0,10,11
 1801 0 1801 0 1712 0 c 2,12,-1
 39 0 l 1,13,-1
 294 283 l 1,14,-1
 294 1277 l 1,0,-1
EndSplineSet
EndChar

StartChar: uniE811
Encoding: 59409 59409 68
Width: 2048
GlyphClass: 2
Flags: W
LayerCount: 2
Fore
SplineSet
679 938 m 1,0,-1
 1745 938 l 1,1,-1
 1745 208 l 1,2,-1
 1931 0 l 1,3,-1
 797 0 l 2,4,5
 715 0 715 0 688 74 c 0,6,7
 679 99 679 99 679 118 c 2,8,-1
 679 938 l 1,0,-1
230 1337 m 1,9,-1
 1298 1337 l 1,10,-1
 1298 1032 l 1,11,-1
 584 1032 l 1,12,-1
 584 399 l 1,13,-1
 43 399 l 1,14,-1
 230 608 l 1,15,-1
 230 1337 l 1,9,-1
EndSplineSet
EndChar

StartChar: uniE812
Encoding: 59410 59410 69
Width: 2048
GlyphClass: 2
Flags: W
LayerCount: 2
Fore
SplineSet
1171 727 m 1,0,-1
 1171 994 l 1,1,-1
 999 994 l 1,2,-1
 999 727 l 1,3,-1
 730 727 l 1,4,-1
 730 562 l 1,5,-1
 999 562 l 1,6,-1
 999 283 l 1,7,-1
 1171 283 l 1,8,-1
 1171 562 l 1,9,-1
 1441 562 l 1,10,-1
 1441 727 l 1,11,-1
 1171 727 l 1,0,-1
294 1277 m 1,12,-1
 1875 1277 l 1,13,-1
 1875 161 l 2,14,15
 1873 144 1873 144 1871 137 c 0,16,17
 1869 129 1869 129 1866 116 c 0,18,19
 1863 102 1863 102 1857 90 c 0,20,21
 1850 78 1850 78 1842 64 c 0,22,23
 1801 0 1801 0 1712 0 c 2,24,-1
 39 0 l 1,25,-1
 294 283 l 1,26,-1
 294 1277 l 1,12,-1
EndSplineSet
EndChar

StartChar: uniE813
Encoding: 59411 59411 70
Width: 2048
GlyphClass: 2
Flags: W
LayerCount: 2
Fore
SplineSet
1289 1034 m 128,-1,1
 1251 1034 1251 1034 1224 1007 c 128,-1,2
 1197 980 1197 980 1197 942 c 128,-1,3
 1197 904 1197 904 1224 878 c 128,-1,4
 1251 852 1251 852 1289 851 c 0,5,6
 1327 852 1327 852 1354 878 c 128,-1,7
 1381 904 1381 904 1381 942 c 128,-1,8
 1381 980 1381 980 1354 1007 c 128,-1,0
 1327 1034 1327 1034 1289 1034 c 128,-1,1
908 1034 m 128,-1,10
 870 1034 870 1034 844 1007 c 128,-1,11
 818 980 818 980 817 942 c 0,12,13
 818 904 818 904 844 878 c 128,-1,14
 870 852 870 852 908 851 c 0,15,16
 946 852 946 852 973 878 c 128,-1,17
 1000 904 1000 904 1000 942 c 128,-1,18
 1000 980 1000 980 973 1007 c 128,-1,9
 946 1034 946 1034 908 1034 c 128,-1,10
1109 625 m 0,19,20
 997 626 997 626 873 652 c 128,-1,21
 749 678 749 678 681 704 c 2,22,-1
 613 730 l 1,23,24
 613 598 613 598 678 486 c 128,-1,25
 743 374 743 374 855 309 c 0,26,27
 966 244 966 244 1082 244 c 128,-1,28
 1198 244 1198 244 1288 282 c 128,-1,29
 1378 320 1378 320 1443 386 c 0,30,31
 1508 451 1508 451 1546 541 c 128,-1,32
 1584 631 1584 631 1585 730 c 1,33,34
 1349 625 1349 625 1109 625 c 0,19,20
294 1278 m 1,35,-1
 1875 1278 l 1,36,-1
 1875 161 l 1,37,38
 1856 9 1856 9 1727 0 c 1,39,40
 883 0 883 0 39 0 c 1,41,-1
 294 285 l 1,42,-1
 294 1278 l 1,35,-1
EndSplineSet
EndChar

StartChar: uniE820
Encoding: 59424 59424 71
Width: 2048
GlyphClass: 2
Flags: W
LayerCount: 2
Fore
SplineSet
678 858 m 0,0,1
 839 992 839 992 1017 958 c 0,2,3
 1139 936 1139 936 1221 847 c 0,4,5
 1248 818 1248 818 1246 776 c 128,-1,6
 1244 734 1244 734 1213 706 c 0,7,8
 1151 650 1151 650 1142 644 c 1,9,10
 1125 714 1125 714 1067 755 c 0,11,12
 1010 796 1010 796 938 794 c 128,-1,13
 866 792 866 792 813 742 c 2,14,-1
 575 521 l 2,15,16
 509 456 509 456 510 370 c 128,-1,17
 511 284 511 284 569 226 c 0,18,19
 670 123 670 123 816 212 c 0,20,21
 854 235 854 235 881 261 c 0,22,23
 909 288 909 288 930 290 c 128,-1,24
 951 292 951 292 1008 275 c 128,-1,25
 1065 258 1065 258 1140 267 c 1,26,27
 1124 252 1124 252 1076 206 c 128,-1,28
 1028 160 1028 160 1006 140 c 0,29,30
 920 64 920 64 858 36 c 0,31,32
 691 -40 691 -40 537 40 c 0,33,34
 409 107 409 107 362 249 c 0,35,36
 314 391 314 391 374 526 c 0,37,38
 404 595 404 595 462 648 c 0,39,40
 482 666 482 666 554 740 c 128,-1,41
 626 814 626 814 678 858 c 0,0,1
1272 1320 m 0,42,43
 1319 1332 1319 1332 1382 1327 c 0,44,45
 1445 1323 1445 1323 1512 1288 c 128,-1,46
 1579 1253 1579 1253 1622 1200 c 0,47,48
 1713 1088 1713 1088 1707 937 c 0,49,50
 1702 786 1702 786 1588 680 c 0,51,52
 1562 657 1562 657 1494 587 c 0,53,54
 1354 444 1354 444 1254 396 c 0,55,56
 1154 347 1154 347 1032 370 c 128,-1,57
 910 393 910 393 828 482 c 0,58,59
 802 512 802 512 804 553 c 128,-1,60
 806 594 806 594 836 622 c 0,61,62
 899 679 899 679 908 684 c 1,63,64
 925 614 925 614 983 573 c 0,65,66
 1040 532 1040 532 1112 535 c 128,-1,67
 1184 538 1184 538 1236 587 c 2,68,-1
 1474 807 l 2,69,70
 1540 873 1540 873 1540 958 c 0,71,72
 1540 1044 1540 1044 1491 1092 c 0,73,74
 1406 1177 1406 1177 1321 1153 c 128,-1,75
 1236 1129 1236 1129 1160 1059 c 0,76,77
 1127 1028 1127 1028 1077 1042 c 0,78,79
 1026 1056 1026 1056 998 1062 c 128,-1,80
 970 1068 970 1068 910 1061 c 1,81,82
 926 1075 926 1075 974 1122 c 0,83,84
 1022 1168 1022 1168 1044 1188 c 128,-1,85
 1066 1208 1066 1208 1112 1243 c 128,-1,86
 1158 1278 1158 1278 1192 1293 c 128,-1,87
 1226 1308 1226 1308 1272 1320 c 0,42,43
EndSplineSet
EndChar

StartChar: uniE830
Encoding: 59440 59440 72
Width: 2048
GlyphClass: 2
Flags: W
LayerCount: 2
Fore
SplineSet
1760 1116 m 2,0,1
 1760 1071 1760 1071 1734 1034 c 128,-1,2
 1708 997 1708 997 1666 981 c 0,3,4
 1562 942 1562 942 1489 856 c 128,-1,5
 1416 770 1416 770 1388 661 c 1,6,-1
 1760 661 l 1,7,-1
 1760 147 l 2,8,9
 1760 86 1760 86 1716 42 c 128,-1,10
 1672 -2 1672 -2 1610 -3 c 2,11,-1
 1097 -3 l 1,12,-1
 1097 352 l 2,13,14
 1098 478 1098 478 1112 578 c 128,-1,15
 1126 678 1126 678 1169 788 c 128,-1,16
 1212 898 1212 898 1291 990 c 128,-1,17
 1370 1082 1370 1082 1480 1142 c 128,-1,18
 1590 1202 1590 1202 1760 1229 c 1,19,-1
 1760 1116 l 2,0,1
924 1116 m 2,20,21
 924 1072 924 1072 897 1034 c 128,-1,22
 870 996 870 996 827 981 c 0,23,24
 723 942 723 942 651 856 c 128,-1,25
 579 770 579 770 551 661 c 1,26,-1
 923 661 l 1,27,-1
 923 147 l 2,28,29
 923 85 923 85 879 41 c 128,-1,30
 835 -3 835 -3 774 -3 c 2,31,-1
 260 -3 l 1,32,-1
 260 352 l 2,33,34
 262 478 262 478 276 578 c 128,-1,35
 290 678 290 678 332 788 c 0,36,37
 375 898 375 898 454 989 c 0,38,39
 533 1081 533 1081 643 1141 c 128,-1,40
 753 1201 753 1201 924 1229 c 1,41,-1
 924 1116 l 2,20,21
EndSplineSet
EndChar

StartChar: uniE831
Encoding: 59441 59441 73
Width: 2048
GlyphClass: 2
Flags: W
LayerCount: 2
Fore
SplineSet
1522 1515 m 1,0,-1
 1688 1515 l 1,1,-1
 1688 1246 l 1,2,-1
 1967 1246 l 1,3,-1
 1967 1080 l 1,4,-1
 1688 1080 l 1,5,-1
 1688 800 l 1,6,-1
 1522 800 l 1,7,-1
 1522 1080 l 1,8,-1
 1253 1080 l 1,9,-1
 1253 1246 l 1,10,-1
 1522 1246 l 1,11,-1
 1522 1515 l 1,0,-1
1420 980 m 1,12,-1
 1420 858 l 1,13,14
 1347 776 1347 776 1317 662 c 1,15,-1
 1689 662 l 1,16,-1
 1689 145 l 2,17,18
 1690 83 1690 83 1646 39 c 128,-1,19
 1602 -5 1602 -5 1540 -5 c 2,20,-1
 1026 -5 l 1,21,-1
 1026 337 l 2,22,23
 1028 539 1028 539 1068 696 c 128,-1,24
 1108 853 1108 853 1214 980 c 1,25,-1
 1420 980 l 1,12,-1
851 1116 m 2,26,27
 851 1071 851 1071 825 1034 c 128,-1,28
 799 997 799 997 757 981 c 0,29,30
 652 940 652 940 580 856 c 128,-1,31
 508 772 508 772 480 662 c 1,32,-1
 851 662 l 1,33,-1
 851 148 l 2,34,35
 851 86 851 86 807 40 c 128,-1,36
 763 -6 763 -6 702 -5 c 2,37,-1
 189 -5 l 1,38,-1
 189 354 l 2,39,40
 192 660 192 660 288 850 c 0,41,42
 383 1040 383 1040 571 1142 c 0,43,44
 680 1202 680 1202 851 1230 c 1,45,-1
 851 1116 l 2,26,27
EndSplineSet
EndChar

StartChar: uniE840
Encoding: 59456 59456 74
Width: 2048
GlyphClass: 2
Flags: W
LayerCount: 2
Fore
SplineSet
1441 347 m 1,0,-1
 1441 1002 l 1,1,-1
 569 1002 l 1,2,-1
 569 347 l 1,3,-1
 1441 347 l 1,0,-1
660 438 m 1,4,-1
 878 729 l 1,5,-1
 1078 529 l 1,6,-1
 1187 620 l 1,7,-1
 1350 438 l 1,8,-1
 660 438 l 1,4,-1
160 1294 m 1,9,-1
 1887 1294 l 1,10,-1
 1887 0 l 1,11,-1
 160 0 l 1,12,-1
 160 1294 l 1,9,-1
EndSplineSet
EndChar

StartChar: uniE841
Encoding: 59457 59457 75
Width: 2048
GlyphClass: 2
Flags: W
LayerCount: 2
Fore
SplineSet
1854 1184 m 2,0,1
 1854 1285 1854 1285 1767 1285 c 128,-1,2
 1680 1285 1680 1285 1680 1184 c 2,3,-1
 1680 1095 l 1,4,-1
 1854 1095 l 1,5,-1
 1854 1184 l 2,0,1
1767 1401 m 0,6,7
 1830 1402 1830 1402 1880 1362 c 0,8,9
 1968 1292 1968 1292 1962 1124 c 1,10,-1
 1962 1095 l 1,11,-1
 2049 1095 l 1,12,-1
 2049 705 l 1,13,-1
 1485 705 l 1,14,-1
 1485 1095 l 1,15,-1
 1569 1095 l 1,16,17
 1568 1208 1568 1208 1586 1265 c 128,-1,18
 1604 1322 1604 1322 1654 1362 c 128,-1,19
 1704 1402 1704 1402 1767 1401 c 0,6,7
1591 167 m 1,20,-1
 1591 168 l 1,21,-1
 1290 432 l 1,22,-1
 1090 314 l 1,23,-1
 722 699 l 1,24,-1
 662 675 l 1,25,-1
 273 167 l 1,26,-1
 1591 167 l 1,20,-1
108 -2 m 1,27,-1
 108 1274 l 1,28,-1
 1487 1274 l 1,29,30
 1472 1237 1472 1237 1471 1197 c 1,31,-1
 1383 1197 l 1,32,-1
 1383 604 l 1,33,-1
 1769 604 l 1,34,-1
 1769 -2 l 1,35,-1
 108 -2 l 1,27,-1
EndSplineSet
EndChar

StartChar: uniE842
Encoding: 59458 59458 76
Width: 2048
GlyphClass: 2
Flags: W
LayerCount: 2
Fore
SplineSet
1591 167 m 1,0,-1
 1591 168 l 1,1,-1
 1290 432 l 1,2,-1
 1090 314 l 1,3,-1
 722 699 l 1,4,-1
 662 675 l 1,5,-1
 273 167 l 1,6,-1
 1591 167 l 1,0,-1
108 -2 m 1,7,-1
 108 1274 l 1,8,-1
 1487 1274 l 1,9,10
 1472 1237 1472 1237 1471 1197 c 1,11,-1
 1383 1197 l 1,12,-1
 1383 604 l 1,13,-1
 1769 604 l 1,14,-1
 1769 -2 l 1,15,-1
 108 -2 l 1,7,-1
EndSplineSet
EndChar

StartChar: uniE843
Encoding: 59459 59459 77
Width: 2048
GlyphClass: 2
Flags: W
LayerCount: 2
Fore
SplineSet
1854 1184 m 2,0,1
 1854 1285 1854 1285 1767 1285 c 128,-1,2
 1680 1285 1680 1285 1680 1184 c 2,3,-1
 1680 1095 l 1,4,-1
 1854 1095 l 1,5,-1
 1854 1184 l 2,0,1
1767 1401 m 0,6,7
 1830 1402 1830 1402 1880 1362 c 0,8,9
 1968 1292 1968 1292 1962 1124 c 1,10,-1
 1962 1095 l 1,11,-1
 2049 1095 l 1,12,-1
 2049 705 l 1,13,-1
 1485 705 l 1,14,-1
 1485 1095 l 1,15,-1
 1569 1095 l 1,16,17
 1568 1208 1568 1208 1586 1265 c 128,-1,18
 1604 1322 1604 1322 1654 1362 c 128,-1,19
 1704 1402 1704 1402 1767 1401 c 0,6,7
EndSplineSet
EndChar

StartChar: uniE844
Encoding: 59460 59460 78
Width: 2048
GlyphClass: 2
Flags: W
LayerCount: 2
Fore
SplineSet
1600 1546 m 1,0,-1
 1771 1546 l 1,1,-1
 1771 1278 l 1,2,-1
 2042 1278 l 1,3,-1
 2042 1114 l 1,4,-1
 1771 1114 l 1,5,-1
 1771 835 l 1,6,-1
 1600 835 l 1,7,-1
 1600 1114 l 1,8,-1
 1331 1114 l 1,9,-1
 1331 1278 l 1,10,-1
 1600 1278 l 1,11,-1
 1600 1546 l 1,0,-1
1085 315 m 1,12,-1
 717 701 l 1,13,-1
 658 676 l 1,14,-1
 269 168 l 1,15,-1
 1586 169 l 1,16,-1
 1285 434 l 1,17,-1
 1085 315 l 1,12,-1
104 0 m 1,18,-1
 104 1276 l 1,19,-1
 1225 1276 l 1,20,-1
 1225 1009 l 1,21,-1
 1494 1009 l 1,22,-1
 1494 740 l 1,23,-1
 1764 740 l 1,24,-1
 1764 0 l 1,25,-1
 104 0 l 1,18,-1
EndSplineSet
EndChar

StartChar: uniE845
Encoding: 59461 59461 79
Width: 2048
GlyphClass: 2
Flags: W
LayerCount: 2
Fore
SplineSet
1085 315 m 1,0,-1
 717 701 l 1,1,-1
 658 676 l 1,2,-1
 269 168 l 1,3,-1
 1586 169 l 1,4,-1
 1285 434 l 1,5,-1
 1085 315 l 1,0,-1
104 0 m 1,6,-1
 104 1276 l 1,7,-1
 1225 1276 l 1,8,-1
 1225 1009 l 1,9,-1
 1494 1009 l 1,10,-1
 1494 740 l 1,11,-1
 1764 740 l 1,12,-1
 1764 0 l 1,13,-1
 104 0 l 1,6,-1
EndSplineSet
EndChar

StartChar: uniE846
Encoding: 59462 59462 80
Width: 2048
GlyphClass: 2
Flags: W
LayerCount: 2
Fore
SplineSet
1600 1546 m 1,0,-1
 1771 1546 l 1,1,-1
 1771 1278 l 1,2,-1
 2042 1278 l 1,3,-1
 2042 1114 l 1,4,-1
 1771 1114 l 1,5,-1
 1771 835 l 1,6,-1
 1600 835 l 1,7,-1
 1600 1114 l 1,8,-1
 1331 1114 l 1,9,-1
 1331 1278 l 1,10,-1
 1600 1278 l 1,11,-1
 1600 1546 l 1,0,-1
EndSplineSet
EndChar

StartChar: uniE847
Encoding: 59463 59463 81
Width: 2048
GlyphClass: 2
Flags: W
LayerCount: 2
Fore
SplineSet
1336 1087 m 1,0,-1
 1336 1574 l 1,1,-1
 686 1574 l 1,2,-1
 686 1087 l 1,3,-1
 1336 1087 l 1,0,-1
753 1154 m 1,4,-1
 916 1371 l 1,5,-1
 1065 1222 l 1,6,-1
 1146 1290 l 1,7,-1
 1268 1154 l 1,8,-1
 753 1154 l 1,4,-1
381 1792 m 1,9,-1
 1667 1792 l 1,10,-1
 1667 -256 l 1,11,-1
 381 -256 l 1,12,-1
 381 1792 l 1,9,-1
EndSplineSet
EndChar

StartChar: uniE848
Encoding: 59464 59464 82
Width: 2048
GlyphClass: 2
Flags: W
LayerCount: 2
Fore
SplineSet
1418 890 m 1,0,-1
 958 890 l 1,1,-1
 851 998 l 1,2,-1
 580 998 l 1,3,-1
 580 431 l 1,4,-1
 662 349 l 1,5,-1
 1418 349 l 1,6,-1
 1418 890 l 1,0,-1
1887 1294 m 1,7,-1
 1887 0 l 1,8,-1
 160 0 l 1,9,-1
 160 1294 l 1,10,-1
 1887 1294 l 1,7,-1
EndSplineSet
EndChar

StartChar: uniE849
Encoding: 59465 59465 83
Width: 2048
GlyphClass: 2
Flags: W
LayerCount: 2
Fore
SplineSet
694 1571 m 1,0,-1
 694 1149 l 1,1,-1
 755 1088 l 1,2,-1
 1318 1088 l 1,3,-1
 1318 1491 l 1,4,-1
 976 1491 l 1,5,-1
 895 1571 l 1,6,-1
 694 1571 l 1,0,-1
381 1792 m 1,7,-1
 1667 1792 l 1,8,-1
 1667 -256 l 1,9,-1
 381 -256 l 1,10,-1
 381 1792 l 1,7,-1
EndSplineSet
EndChar

StartChar: uniE850
Encoding: 59472 59472 84
Width: 2048
GlyphClass: 2
Flags: W
LayerCount: 2
Fore
SplineSet
1507 1176 m 1,0,-1
 1507 1424 l 1,1,-1
 1666 1424 l 1,2,-1
 1666 1176 l 1,3,-1
 1859 1176 l 2,4,5
 1884 1176 1884 1176 1901 1159 c 128,-1,6
 1918 1142 1918 1142 1918 1117 c 2,7,-1
 1918 1023 l 1,8,-1
 1666 1023 l 1,9,-1
 1666 764 l 1,10,-1
 1506 764 l 1,11,-1
 1506 1023 l 1,12,-1
 1258 1023 l 1,13,-1
 1258 1176 l 1,14,-1
 1507 1176 l 1,0,-1
131 193 m 2,15,-1
 131 1176 l 1,16,-1
 1163 1176 l 1,17,-1
 1163 1021 l 1,18,-1
 283 1021 l 1,19,-1
 283 297 l 2,20,21
 282 248 282 248 318 212 c 128,-1,22
 354 176 354 176 404 176 c 2,23,-1
 1506 176 l 1,24,-1
 1506 639 l 1,25,-1
 1662 639 l 1,26,-1
 1662 0 l 1,27,-1
 324 0 l 2,28,29
 244 0 244 0 188 57 c 128,-1,30
 132 114 132 114 131 193 c 2,15,-1
EndSplineSet
EndChar

StartChar: uniE851
Encoding: 59473 59473 85
Width: 2048
GlyphClass: 2
Flags: W
LayerCount: 2
Fore
SplineSet
1023 1237 m 0,0,1
 880 1236 880 1236 780 1136 c 128,-1,2
 680 1036 680 1036 680 894 c 128,-1,3
 680 752 680 752 780 651 c 128,-1,4
 880 550 880 550 1024 550 c 0,5,6
 1166 550 1166 550 1266 651 c 128,-1,7
 1366 752 1366 752 1367 894 c 0,8,9
 1367 1036 1367 1036 1266 1136 c 128,-1,10
 1165 1236 1165 1236 1023 1237 c 0,0,1
1187 1507 m 128,-1,12
 1350 1464 1350 1464 1472 1342 c 128,-1,13
 1594 1220 1594 1220 1636 1058 c 0,14,15
 1678 894 1678 894 1636 732 c 0,16,17
 1592 570 1592 570 1470 448 c 2,18,-1
 1022 0 l 1,19,-1
 575 445 l 2,20,21
 453 566 453 566 410 730 c 128,-1,22
 367 894 367 894 411 1056 c 0,23,24
 455 1219 455 1219 577 1341 c 0,25,26
 700 1462 700 1462 862 1506 c 128,-1,11
 1024 1550 1024 1550 1187 1507 c 128,-1,12
EndSplineSet
EndChar

StartChar: uniE852
Encoding: 59474 59474 86
Width: 2048
GlyphClass: 2
Flags: W
LayerCount: 2
Fore
SplineSet
1557 1689 m 1,0,-1
 1684 1689 l 1,1,-1
 1684 1491 l 1,2,-1
 1837 1491 l 2,3,4
 1856 1492 1856 1492 1870 1478 c 128,-1,5
 1884 1464 1884 1464 1884 1444 c 2,6,-1
 1884 1369 l 1,7,-1
 1684 1369 l 1,8,-1
 1684 1163 l 1,9,-1
 1556 1163 l 1,10,-1
 1556 1369 l 1,11,-1
 1359 1369 l 1,12,-1
 1359 1491 l 1,13,-1
 1557 1491 l 1,14,-1
 1557 1689 l 1,0,-1
1026 1237 m 0,15,16
 884 1236 884 1236 784 1136 c 128,-1,17
 684 1036 684 1036 683 894 c 0,18,19
 684 752 684 752 784 651 c 128,-1,20
 884 550 884 550 1026 550 c 128,-1,21
 1168 550 1168 550 1269 651 c 128,-1,22
 1370 752 1370 752 1370 894 c 128,-1,23
 1370 1036 1370 1036 1269 1136 c 128,-1,24
 1168 1236 1168 1236 1026 1237 c 0,15,16
1269 1280 m 1,25,-1
 1467 1280 l 1,26,-1
 1467 1074 l 1,27,-1
 1634 1074 l 1,28,29
 1683 914 1683 914 1641 744 c 128,-1,30
 1599 574 1599 574 1473 448 c 2,31,-1
 1025 0 l 1,32,-1
 578 445 l 2,33,34
 456 566 456 566 413 730 c 128,-1,35
 370 894 370 894 414 1056 c 0,36,37
 458 1219 458 1219 588 1349 c 128,-1,38
 718 1479 718 1479 908 1516 c 128,-1,39
 1098 1553 1098 1553 1269 1480 c 1,40,-1
 1269 1280 l 1,25,-1
EndSplineSet
EndChar

StartChar: uniE853
Encoding: 59475 59475 87
Width: 2048
GlyphClass: 2
Flags: W
LayerCount: 2
Fore
SplineSet
1026 1237 m 0,0,1
 884 1236 884 1236 784 1136 c 128,-1,2
 684 1036 684 1036 683 894 c 0,3,4
 684 752 684 752 784 651 c 128,-1,5
 884 550 884 550 1026 550 c 128,-1,6
 1168 550 1168 550 1269 651 c 128,-1,7
 1370 752 1370 752 1370 894 c 128,-1,8
 1370 1036 1370 1036 1269 1136 c 128,-1,9
 1168 1236 1168 1236 1026 1237 c 0,0,1
1269 1280 m 1,10,-1
 1467 1280 l 1,11,-1
 1467 1074 l 1,12,-1
 1634 1074 l 1,13,14
 1683 914 1683 914 1641 744 c 128,-1,15
 1599 574 1599 574 1473 448 c 2,16,-1
 1025 0 l 1,17,-1
 578 445 l 2,18,19
 456 566 456 566 413 730 c 128,-1,20
 370 894 370 894 414 1056 c 0,21,22
 458 1219 458 1219 588 1349 c 128,-1,23
 718 1479 718 1479 908 1516 c 128,-1,24
 1098 1553 1098 1553 1269 1480 c 1,25,-1
 1269 1280 l 1,10,-1
EndSplineSet
EndChar

StartChar: uniE854
Encoding: 59476 59476 88
Width: 2048
GlyphClass: 2
Flags: W
LayerCount: 2
Fore
SplineSet
1557 1689 m 1,0,-1
 1684 1689 l 1,1,-1
 1684 1491 l 1,2,-1
 1837 1491 l 2,3,4
 1856 1492 1856 1492 1870 1478 c 128,-1,5
 1884 1464 1884 1464 1884 1444 c 2,6,-1
 1884 1369 l 1,7,-1
 1684 1369 l 1,8,-1
 1684 1163 l 1,9,-1
 1556 1163 l 1,10,-1
 1556 1369 l 1,11,-1
 1359 1369 l 1,12,-1
 1359 1491 l 1,13,-1
 1557 1491 l 1,14,-1
 1557 1689 l 1,0,-1
EndSplineSet
EndChar

StartChar: uniE870
Encoding: 59504 59504 89
Width: 2048
GlyphClass: 2
Flags: W
LayerCount: 2
Fore
SplineSet
639 706 m 1,0,-1
 1405 706 l 1,1,-1
 1405 806 l 1,2,-1
 639 806 l 1,3,-1
 639 706 l 1,0,-1
639 453 m 1,4,-1
 1405 453 l 1,5,-1
 1405 551 l 1,6,-1
 639 551 l 1,7,-1
 639 453 l 1,4,-1
639 201 m 1,8,-1
 1405 201 l 1,9,-1
 1405 302 l 1,10,-1
 639 302 l 1,11,-1
 639 201 l 1,8,-1
974 1058 m 1,12,-1
 639 1058 l 1,13,-1
 639 958 l 1,14,-1
 974 958 l 1,15,-1
 974 1058 l 1,12,-1
974 1311 m 1,16,-1
 639 1311 l 1,17,-1
 639 1211 l 1,18,-1
 974 1211 l 1,19,-1
 974 1311 l 1,16,-1
1406 1508 m 1,20,-1
 1473 1508 l 2,21,22
 1534 1508 1534 1508 1570 1475 c 128,-1,23
 1606 1442 1606 1442 1606 1381 c 2,24,-1
 1606 0 l 1,25,-1
 571 0 l 2,26,27
 511 0 511 0 476 35 c 128,-1,28
 441 70 441 70 441 129 c 2,29,-1
 441 1508 l 1,30,-1
 1128 1508 l 1,31,-1
 1128 961 l 1,32,-1
 1265 1134 l 1,33,-1
 1406 961 l 1,34,-1
 1406 1508 l 1,20,-1
EndSplineSet
EndChar

StartChar: uniE871
Encoding: 59505 59505 90
Width: 2048
GlyphClass: 2
Flags: W
LayerCount: 2
Fore
SplineSet
1667 319 m 1,0,-1
 1667 1237 l 1,1,-1
 1309 1237 l 2,2,3
 1250 1236 1250 1236 1208 1194 c 128,-1,4
 1166 1152 1166 1152 1166 1093 c 2,5,-1
 1166 314 l 1,6,7
 1189 319 1189 319 1208 319 c 2,8,-1
 1667 319 l 1,0,-1
1208 1438 m 2,9,-1
 1869 1438 l 1,10,-1
 1869 117 l 1,11,-1
 1208 117 l 2,12,13
 1135 116 1135 116 1082 66 c 128,-1,14
 1029 16 1029 16 1024 -56 c 1,15,16
 1020 16 1020 16 966 66 c 128,-1,17
 912 116 912 116 839 117 c 2,18,-1
 179 117 l 1,19,-1
 179 1438 l 1,20,-1
 839 1438 l 2,21,22
 912 1438 912 1438 966 1388 c 128,-1,23
 1020 1338 1020 1338 1024 1266 c 1,24,25
 1029 1338 1029 1338 1082 1388 c 128,-1,26
 1135 1438 1135 1438 1208 1438 c 2,9,-1
EndSplineSet
EndChar

StartChar: uniE872
Encoding: 59506 59506 91
Width: 2048
GlyphClass: 2
Flags: W
LayerCount: 2
Fore
SplineSet
1404 1205 m 1,0,-1
 1404 1305 l 1,1,-1
 910 1305 l 1,2,-1
 910 1205 l 1,3,-1
 1404 1205 l 1,0,-1
1252 952 m 1,4,-1
 1252 1052 l 1,5,-1
 910 1052 l 1,6,-1
 910 952 l 1,7,-1
 1252 952 l 1,4,-1
443 1506 m 1,8,-1
 594 1506 l 1,9,-1
 594 0 l 1,10,-1
 443 0 l 1,11,-1
 443 1506 l 1,8,-1
707 1506 m 1,12,-1
 1606 1506 l 1,13,-1
 1606 177 l 2,14,15
 1606 112 1606 112 1545 56 c 128,-1,16
 1484 0 1484 0 1416 0 c 2,17,-1
 707 0 l 1,18,-1
 707 1506 l 1,12,-1
EndSplineSet
EndChar

StartChar: uniE873
Encoding: 59507 59507 92
Width: 2048
GlyphClass: 2
Flags: W
LayerCount: 2
Fore
SplineSet
1002 1137 m 128,-1,1
 970 1138 970 1138 948 1116 c 128,-1,2
 926 1094 926 1094 927 1062 c 128,-1,3
 928 1030 928 1030 950 1008 c 128,-1,4
 972 986 972 986 1003 986 c 128,-1,5
 1034 986 1034 986 1056 1008 c 128,-1,6
 1078 1030 1078 1030 1078 1061 c 128,-1,7
 1078 1092 1078 1092 1056 1114 c 128,-1,0
 1034 1136 1034 1136 1002 1137 c 128,-1,1
750 1137 m 128,-1,9
 718 1138 718 1138 696 1116 c 128,-1,10
 674 1094 674 1094 675 1062 c 128,-1,11
 676 1030 676 1030 698 1008 c 128,-1,12
 720 986 720 986 751 986 c 128,-1,13
 782 986 782 986 804 1008 c 128,-1,14
 826 1030 826 1030 826 1061 c 128,-1,15
 826 1092 826 1092 804 1114 c 128,-1,8
 782 1136 782 1136 750 1137 c 128,-1,9
497 1137 m 128,-1,17
 466 1138 466 1138 444 1116 c 128,-1,18
 422 1094 422 1094 422 1062 c 128,-1,19
 422 1030 422 1030 444 1008 c 128,-1,20
 466 986 466 986 498 986 c 128,-1,21
 530 986 530 986 552 1008 c 128,-1,22
 574 1030 574 1030 573 1061 c 128,-1,23
 572 1092 572 1092 550 1114 c 128,-1,16
 528 1136 528 1136 497 1137 c 128,-1,17
1628 148 m 1,24,-1
 1628 884 l 1,25,-1
 422 884 l 1,26,-1
 422 238 l 2,27,28
 422 200 422 200 448 174 c 128,-1,29
 474 148 474 148 512 148 c 2,30,-1
 1628 148 l 1,24,-1
272 1239 m 1,31,-1
 1777 1239 l 1,32,-1
 1777 0 l 1,33,-1
 416 0 l 2,34,35
 356 0 356 0 314 42 c 128,-1,36
 272 84 272 84 272 144 c 2,37,-1
 272 1239 l 1,31,-1
EndSplineSet
EndChar

StartChar: uniE874
Encoding: 59508 59508 93
Width: 2048
GlyphClass: 2
Flags: W
LayerCount: 2
Fore
SplineSet
1611 858 m 1,0,-1
 1611 1033 l 1,1,-1
 709 1033 l 1,2,-1
 709 858 l 1,3,-1
 1611 858 l 1,0,-1
1611 203 m 1,4,-1
 1611 707 l 1,5,-1
 1302 707 l 1,6,-1
 1302 203 l 1,7,-1
 1611 203 l 1,4,-1
1151 607 m 1,8,-1
 1151 707 l 1,9,-1
 710 707 l 1,10,-1
 710 607 l 1,11,-1
 1151 607 l 1,8,-1
1151 405 m 1,12,-1
 1151 505 l 1,13,-1
 710 505 l 1,14,-1
 710 405 l 1,15,-1
 1151 405 l 1,12,-1
1151 202 m 1,16,-1
 1151 302 l 1,17,-1
 710 302 l 1,18,-1
 710 202 l 1,19,-1
 1151 202 l 1,16,-1
307 311 m 2,20,21
 307 179 307 179 407 179 c 0,22,23
 456 178 456 178 482 214 c 128,-1,24
 508 250 508 250 508 311 c 2,25,-1
 508 1232 l 1,26,-1
 1666 1232 l 2,27,28
 1726 1232 1726 1232 1768 1190 c 128,-1,29
 1810 1148 1810 1148 1810 1088 c 2,30,-1
 1810 0 l 1,31,-1
 407 0 l 2,32,33
 280 0 280 0 218 74 c 128,-1,34
 156 148 156 148 156 307 c 2,35,-1
 156 817 l 1,36,-1
 404 817 l 1,37,-1
 404 665 l 1,38,-1
 307 665 l 1,39,-1
 307 311 l 2,20,21
EndSplineSet
EndChar

StartChar: uniE875
Encoding: 59509 59509 94
Width: 2048
GlyphClass: 2
Flags: W
LayerCount: 2
Fore
SplineSet
1718 1237 m 0,0,1
 1682 1262 1682 1262 1636 1262 c 128,-1,2
 1590 1262 1590 1262 1555 1235 c 0,3,4
 1356 1086 1356 1086 1287 856 c 0,5,6
 1249 733 1249 733 1260 643 c 1,7,8
 1436 694 1436 694 1582 806 c 0,9,10
 1729 919 1729 919 1773 1091 c 0,11,12
 1782 1132 1782 1132 1767 1172 c 128,-1,13
 1752 1212 1752 1212 1718 1237 c 0,0,1
26 151 m 1,14,-1
 2021 151 l 1,15,-1
 2021 1 l 1,16,-1
 26 1 l 1,17,-1
 26 151 l 1,14,-1
293 715 m 1,18,-1
 464 886 l 1,19,-1
 566 784 l 1,20,-1
 395 612 l 1,21,-1
 567 440 l 1,22,-1
 465 338 l 1,23,-1
 292 510 l 1,24,-1
 127 344 l 1,25,-1
 26 446 l 1,26,-1
 190 612 l 1,27,-1
 25 778 l 1,28,-1
 127 880 l 1,29,-1
 293 715 l 1,18,-1
2023 362 m 2,30,-1
 2023 306 l 1,31,-1
 1876 305 l 1,32,33
 1883 388 1883 388 1869 397 c 0,34,35
 1815 432 1815 432 1637 368 c 0,36,37
 1599 354 1599 354 1586 350 c 0,38,39
 1478 315 1478 315 1356 343 c 128,-1,40
 1234 371 1234 371 1167 468 c 1,41,42
 1004 439 1004 439 720 448 c 1,43,-1
 720 598 l 1,44,45
 983 592 983 592 1113 612 c 1,46,47
 1092 748 1092 748 1139 904 c 128,-1,48
 1186 1060 1186 1060 1284 1188 c 0,49,50
 1382 1318 1382 1318 1506 1382 c 0,51,52
 1657 1462 1657 1462 1812 1346 c 0,53,54
 1896 1284 1896 1284 1922 1168 c 0,55,56
 1934 1114 1934 1114 1914 1034 c 128,-1,57
 1894 954 1894 954 1835 866 c 0,58,59
 1777 777 1777 777 1698 710 c 0,60,61
 1543 578 1543 578 1337 511 c 1,62,63
 1441 450 1441 450 1572 504 c 0,64,65
 1637 530 1637 530 1706 544 c 1,66,-1
 1707 544 l 1,67,68
 1838 566 1838 566 1906 543 c 0,69,70
 1993 513 1993 513 2012 443 c 0,71,72
 2023 401 2023 401 2023 362 c 2,30,-1
EndSplineSet
EndChar

StartChar: uniE876
Encoding: 59510 59510 95
Width: 2048
GlyphClass: 2
Flags: W
LayerCount: 2
Fore
SplineSet
202 1310 m 1,0,-1
 122 1310 l 1,1,-1
 122 1355 l 1,2,3
 215 1358 215 1358 215 1415 c 1,4,-1
 270 1415 l 1,5,-1
 270 1076 l 1,6,-1
 202 1076 l 1,7,-1
 202 1310 l 1,0,-1
340 749 m 128,-1,9
 340 706 340 706 322 682 c 128,-1,10
 304 658 304 658 267 631 c 2,11,-1
 240 612 l 2,12,13
 200 584 200 584 189 567 c 1,14,-1
 340 567 l 1,15,-1
 340 507 l 1,16,-1
 104 507 l 1,17,18
 104 542 104 542 119 576 c 128,-1,19
 134 610 134 610 184 646 c 128,-1,20
 234 682 234 682 252 700 c 0,21,22
 270 720 270 720 271 744 c 0,23,24
 270 768 270 768 258 782 c 0,25,26
 246 797 246 797 224 797 c 0,27,28
 174 797 174 797 174 732 c 1,29,-1
 108 732 l 1,30,31
 111 855 111 855 220 855 c 0,32,33
 274 855 274 855 308 824 c 0,34,8
 340 792 340 792 340 749 c 128,-1,9
114 176 m 1,35,36
 121 282 121 282 220 282 c 0,37,38
 267 282 267 282 297 258 c 0,39,40
 326 232 326 232 326 197 c 128,-1,41
 326 162 326 162 312 146 c 128,-1,42
 298 130 298 130 286 126 c 1,43,44
 294 126 294 126 315 106 c 128,-1,45
 336 86 336 86 336 46 c 128,-1,46
 336 6 336 6 308 -26 c 128,-1,47
 280 -58 280 -58 215 -57 c 0,48,49
 113 -57 113 -57 108 52 c 1,50,-1
 172 52 l 1,51,52
 172 -5 172 -5 221 -5 c 0,53,54
 239 -5 239 -5 254 8 c 0,55,56
 268 21 268 21 268 46 c 0,57,58
 268 96 268 96 195 96 c 1,59,-1
 195 142 l 1,60,61
 228 142 228 142 244 150 c 128,-1,62
 260 158 260 158 260 187 c 0,63,64
 260 229 260 229 217 229 c 128,-1,65
 174 229 174 229 174 176 c 1,66,-1
 114 176 l 1,35,36
1944 226 m 1,67,-1
 1944 0 l 1,68,-1
 509 0 l 1,69,-1
 509 226 l 1,70,-1
 1944 226 l 1,67,-1
1944 794 m 1,71,-1
 1944 568 l 1,72,-1
 509 568 l 1,73,-1
 509 794 l 1,74,-1
 1944 794 l 1,71,-1
1827 1359 m 2,75,76
 1876 1358 1876 1358 1910 1324 c 128,-1,77
 1944 1290 1944 1290 1944 1241 c 2,78,-1
 1944 1133 l 1,79,-1
 509 1133 l 1,80,-1
 509 1359 l 1,81,-1
 1827 1359 l 2,75,76
EndSplineSet
EndChar

StartChar: uniE877
Encoding: 59511 59511 96
Width: 2048
GlyphClass: 2
Flags: W
LayerCount: 2
Fore
SplineSet
520 787 m 1,0,-1
 1934 787 l 1,1,-1
 1934 564 l 1,2,-1
 520 564 l 1,3,-1
 520 787 l 1,0,-1
243 1369 m 128,-1,5
 297 1369 297 1369 335 1331 c 0,6,7
 373 1294 373 1294 373 1240 c 128,-1,8
 373 1186 373 1186 335 1148 c 128,-1,9
 297 1110 297 1110 243 1110 c 128,-1,10
 189 1110 189 1110 151 1148 c 128,-1,11
 113 1186 113 1186 113 1240 c 128,-1,12
 113 1294 113 1294 151 1331 c 0,13,4
 189 1369 189 1369 243 1369 c 128,-1,5
520 223 m 1,14,-1
 1934 223 l 1,15,-1
 1934 0 l 1,16,-1
 520 0 l 1,17,-1
 520 223 l 1,14,-1
243 805 m 128,-1,19
 297 805 297 805 335 767 c 0,20,21
 373 730 373 730 373 676 c 128,-1,22
 373 622 373 622 335 584 c 128,-1,23
 297 546 297 546 243 546 c 128,-1,24
 189 546 189 546 151 584 c 128,-1,25
 113 622 113 622 113 676 c 128,-1,26
 113 730 113 730 151 767 c 0,27,18
 189 805 189 805 243 805 c 128,-1,19
243 241 m 128,-1,29
 297 241 297 241 335 203 c 0,30,31
 373 166 373 166 373 112 c 128,-1,32
 373 58 373 58 335 20 c 128,-1,33
 297 -18 297 -18 243 -18 c 128,-1,34
 189 -18 189 -18 151 20 c 128,-1,35
 113 58 113 58 113 112 c 128,-1,36
 113 166 113 166 151 203 c 0,37,28
 189 241 189 241 243 241 c 128,-1,29
520 1351 m 1,38,-1
 1818 1351 l 2,39,40
 1866 1351 1866 1351 1900 1317 c 128,-1,41
 1934 1283 1934 1283 1934 1235 c 2,42,-1
 1934 1128 l 1,43,-1
 520 1128 l 1,44,-1
 520 1351 l 1,38,-1
EndSplineSet
EndChar

StartChar: uniE878
Encoding: 59512 59512 97
Width: 2048
GlyphClass: 2
Flags: W
LayerCount: 2
Fore
SplineSet
286 664 m 1,0,-1
 599 954 l 1,1,-1
 599 399 l 1,2,-1
 286 664 l 1,0,-1
805 585 m 1,3,-1
 1388 585 l 1,4,-1
 1388 400 l 1,5,-1
 805 400 l 1,6,-1
 805 585 l 1,3,-1
805 954 m 1,7,-1
 1762 954 l 1,8,-1
 1762 767 l 1,9,-1
 805 767 l 1,10,-1
 805 954 l 1,7,-1
284 186 m 1,11,-1
 1764 186 l 1,12,-1
 1764 0 l 1,13,-1
 382 0 l 2,14,15
 340 0 340 0 312 28 c 128,-1,16
 284 56 284 56 284 97 c 2,17,-1
 284 186 l 1,11,-1
284 1353 m 1,18,-1
 1665 1353 l 2,19,20
 1706 1352 1706 1352 1734 1324 c 128,-1,21
 1762 1296 1762 1296 1762 1256 c 2,22,-1
 1762 1166 l 1,23,-1
 284 1166 l 1,24,-1
 284 1353 l 1,18,-1
EndSplineSet
EndChar

StartChar: uniE879
Encoding: 59513 59513 98
Width: 2048
GlyphClass: 2
Flags: W
LayerCount: 2
Fore
SplineSet
804 954 m 1,0,-1
 1762 954 l 1,1,-1
 1762 768 l 1,2,-1
 804 768 l 1,3,-1
 804 954 l 1,0,-1
804 586 m 1,4,-1
 1388 586 l 1,5,-1
 1388 400 l 1,6,-1
 804 400 l 1,7,-1
 804 586 l 1,4,-1
284 399 m 1,8,-1
 284 954 l 1,9,-1
 598 689 l 1,10,-1
 284 399 l 1,8,-1
283 186 m 1,11,-1
 1764 186 l 1,12,-1
 1764 0 l 1,13,-1
 381 0 l 2,14,15
 341 0 341 0 312 28 c 128,-1,16
 283 56 283 56 283 97 c 2,17,-1
 283 186 l 1,11,-1
283 1354 m 1,18,-1
 1664 1354 l 2,19,20
 1704 1354 1704 1354 1733 1326 c 128,-1,21
 1762 1298 1762 1298 1762 1257 c 2,22,-1
 1762 1167 l 1,23,-1
 283 1167 l 1,24,-1
 283 1354 l 1,18,-1
EndSplineSet
EndChar

StartChar: uniE900
Encoding: 59648 59648 99
Width: 2048
GlyphClass: 2
Flags: W
LayerCount: 2
Fore
SplineSet
1653 945 m 1,0,-1
 1758 1002 l 1,1,-1
 1836 857 l 1,2,-1
 1978 934 l 1,3,-1
 2036 826 l 1,4,-1
 1892 749 l 1,5,-1
 1968 608 l 1,6,-1
 1862 550 l 1,7,-1
 1786 692 l 1,8,-1
 1643 618 l 1,9,-1
 1585 724 l 1,10,-1
 1729 801 l 1,11,-1
 1653 945 l 1,0,-1
1279 867 m 1,12,-1
 1342 1022 l 1,13,14
 1463 970 1463 970 1551 945 c 1,15,-1
 1504 798 l 1,16,-1
 1500 784 l 1,17,-1
 1279 867 l 1,12,-1
965 1004 m 1,18,-1
 1031 1160 l 1,19,20
 1180 1098 1180 1098 1242 1066 c 1,21,-1
 1173 910 l 1,22,-1
 965 1004 l 1,18,-1
590 1358 m 128,-1,24
 654 1410 654 1410 738 1403 c 0,25,26
 822 1395 822 1395 874 1331 c 0,27,28
 928 1268 928 1268 920 1184 c 128,-1,29
 912 1100 912 1100 848 1047 c 128,-1,30
 784 994 784 994 700 1002 c 128,-1,31
 616 1010 616 1010 564 1074 c 128,-1,32
 512 1138 512 1138 519 1222 c 128,-1,23
 526 1306 526 1306 590 1358 c 128,-1,24
413 1119 m 1,33,34
 313 1119 313 1119 243 1069 c 1,35,-1
 147 1210 l 1,36,37
 263 1286 263 1286 413 1289 c 1,38,-1
 413 1119 l 1,33,34
44 1062 m 1,39,-1
 200 993 l 1,40,41
 167 909 167 909 195 836 c 1,42,-1
 36 776 l 1,43,44
 -18 924 -18 924 44 1062 c 1,39,-1
398 596 m 1,45,-1
 283 471 l 1,46,47
 152 597 152 597 116 639 c 1,48,-1
 241 752 l 1,49,50
 343 645 343 645 398 596 c 1,45,-1
467 520 m 128,-1,52
 560 596 560 596 678 586 c 128,-1,53
 796 576 796 576 872 482 c 0,54,55
 948 390 948 390 938 272 c 0,56,57
 927 154 927 154 835 78 c 0,58,59
 742 3 742 3 624 12 c 0,60,61
 506 22 506 22 430 114 c 128,-1,62
 354 206 354 206 364 324 c 0,63,51
 374 444 374 444 467 520 c 128,-1,52
EndSplineSet
EndChar

StartChar: uniE901
Encoding: 59649 59649 100
Width: 2048
GlyphClass: 2
Flags: W
LayerCount: 2
Fore
SplineSet
1155 351 m 128,-1,1
 1100 296 1100 296 1020 294 c 128,-1,2
 940 292 940 292 882 350 c 128,-1,3
 824 408 824 408 825 489 c 0,4,5
 826 569 826 569 882 624 c 0,6,7
 938 678 938 678 1018 680 c 128,-1,8
 1098 682 1098 682 1156 624 c 128,-1,9
 1214 566 1214 566 1212 486 c 128,-1,0
 1210 406 1210 406 1155 351 c 128,-1,1
1573 491 m 128,-1,11
 1573 326 1573 326 1492 194 c 128,-1,12
 1411 62 1411 62 1273 -8 c 0,13,14
 1135 -80 1135 -80 975 -67 c 0,15,16
 772 -51 772 -51 628 94 c 128,-1,17
 484 239 484 239 469 432 c 0,18,19
 455 625 455 625 552 778 c 0,20,21
 607 865 607 865 643 899 c 1,22,23
 682 864 682 864 713 832 c 128,-1,24
 744 800 744 800 744 797 c 2,25,-1
 782 759 l 1,26,-1
 819 796 l 1,27,-1
 855 656 l 1,28,-1
 714 692 l 1,29,-1
 751 729 l 1,30,-1
 718 762 l 1,31,32
 696 738 696 738 659 668 c 0,33,34
 622 597 622 597 616 512 c 1,35,-1
 661 512 l 1,36,-1
 661 565 l 1,37,-1
 787 491 l 1,38,-1
 661 417 l 1,39,-1
 661 469 l 1,40,-1
 615 469 l 1,41,42
 619 326 619 326 715 216 c 1,43,-1
 751 253 l 1,44,-1
 714 290 l 1,45,-1
 855 326 l 1,46,-1
 819 185 l 1,47,-1
 782 222 l 1,48,-1
 745 185 l 1,49,50
 852 86 852 86 998 77 c 1,51,-1
 998 130 l 1,52,-1
 946 130 l 1,53,-1
 1020 255 l 1,54,-1
 1094 130 l 1,55,-1
 1041 130 l 1,56,-1
 1041 77 l 1,57,58
 1187 84 1187 84 1296 184 c 1,59,-1
 1258 222 l 1,60,-1
 1221 185 l 1,61,-1
 1185 326 l 1,62,-1
 1326 290 l 1,63,-1
 1289 253 l 1,64,-1
 1326 215 l 1,65,66
 1423 324 1423 324 1427 469 c 1,67,-1
 1378 469 l 1,68,-1
 1378 417 l 1,69,-1
 1253 491 l 1,70,-1
 1378 565 l 1,71,-1
 1378 512 l 1,72,-1
 1426 512 l 1,73,74
 1415 655 1415 655 1319 759 c 1,75,-1
 1289 729 l 1,76,-1
 1326 692 l 1,77,-1
 1185 656 l 1,78,-1
 1221 796 l 1,79,-1
 1258 759 l 1,80,-1
 1288 789 l 1,81,82
 1231 838 1231 838 1164 863 c 1,83,-1
 1142 873 l 2,84,85
 1121 883 1121 883 1092 896 c 128,-1,86
 1063 909 1063 909 1051 916 c 0,87,88
 965 966 965 966 923 1093 c 1,89,-1
 913 1145 l 2,90,91
 913 1147 913 1147 855 1129 c 128,-1,92
 797 1111 797 1111 797 1112 c 0,93,94
 822 1170 822 1170 950 1383 c 2,95,-1
 994 1458 l 1,96,-1
 1177 1112 l 1,97,98
 1170 1115 1170 1115 1158 1119 c 2,99,-1
 1120 1132 l 2,100,101
 1062 1152 1062 1152 1064 1145 c 0,102,103
 1077 1091 1077 1091 1111 1060 c 0,104,105
 1137 1032 1137 1032 1226 998 c 0,106,107
 1381 936 1381 936 1477 796 c 128,-1,10
 1573 656 1573 656 1573 491 c 128,-1,11
EndSplineSet
EndChar

StartChar: uniE902
Encoding: 59650 59650 101
Width: 2048
GlyphClass: 2
Flags: W
LayerCount: 2
Fore
SplineSet
1966 1184 m 128,-1,1
 1966 1162 1966 1162 1957 1153 c 1,2,3
 1862 1143 1862 1143 1807 1046 c 0,4,5
 1794 1023 1794 1023 1775 982 c 2,6,-1
 1341 42 l 2,7,8
 1328 20 1328 20 1320 10 c 128,-1,9
 1312 0 1312 0 1298 0 c 0,10,11
 1268 0 1268 0 1255 42 c 1,12,-1
 1014 558 l 1,13,-1
 748 40 l 2,14,15
 730 1 730 1 697 1 c 128,-1,16
 664 1 664 1 648 42 c 2,17,-1
 246 985 l 2,18,19
 201 1091 201 1091 175 1120 c 128,-1,20
 149 1149 149 1149 80 1153 c 1,21,22
 71 1162 71 1162 70 1184 c 128,-1,23
 69 1206 69 1206 78 1214 c 1,24,25
 127 1212 127 1212 273 1212 c 128,-1,26
 419 1212 419 1212 475 1214 c 1,27,28
 484 1206 484 1206 484 1184 c 128,-1,29
 484 1162 484 1162 475 1153 c 1,30,31
 390 1144 390 1144 376 1114 c 128,-1,32
 362 1084 362 1084 400 1005 c 2,33,-1
 737 235 l 1,34,-1
 745 235 l 1,35,-1
 953 647 l 1,36,-1
 794 984 l 2,37,38
 746 1086 746 1086 720 1114 c 128,-1,39
 694 1142 694 1142 638 1152 c 1,40,41
 629 1160 629 1160 628 1182 c 128,-1,42
 627 1204 627 1204 636 1213 c 1,43,44
 676 1212 676 1212 802 1212 c 128,-1,45
 928 1212 928 1212 968 1213 c 1,46,47
 977 1204 977 1204 977 1182 c 128,-1,48
 977 1160 977 1160 968 1152 c 1,49,50
 912 1143 912 1143 910 1113 c 128,-1,51
 908 1083 908 1083 948 1004 c 2,52,-1
 1042 823 l 1,53,-1
 1133 999 l 2,54,55
 1175 1078 1175 1078 1177 1104 c 0,56,57
 1180 1130 1180 1130 1166 1138 c 128,-1,58
 1152 1146 1152 1146 1122 1151 c 1,59,60
 1116 1160 1116 1160 1117 1182 c 128,-1,61
 1118 1204 1118 1204 1125 1213 c 1,62,63
 1162 1212 1162 1212 1266 1212 c 128,-1,64
 1370 1212 1370 1212 1405 1213 c 1,65,66
 1414 1204 1414 1204 1414 1182 c 128,-1,67
 1414 1160 1414 1160 1405 1152 c 1,68,69
 1340 1142 1340 1142 1302 1102 c 128,-1,70
 1264 1062 1264 1062 1223 983 c 2,71,-1
 1099 722 l 1,72,-1
 1335 238 l 1,73,-1
 1343 238 l 1,74,-1
 1692 996 l 2,75,76
 1729 1071 1729 1071 1714 1109 c 128,-1,77
 1699 1147 1699 1147 1613 1153 c 1,78,79
 1604 1162 1604 1162 1604 1184 c 128,-1,80
 1604 1206 1604 1206 1613 1214 c 1,81,82
 1665 1212 1665 1212 1789 1212 c 128,-1,83
 1913 1212 1913 1212 1957 1214 c 1,84,0
 1966 1206 1966 1206 1966 1184 c 128,-1,1
EndSplineSet
EndChar

StartChar: uniE903
Encoding: 59651 59651 102
Width: 2048
GlyphClass: 2
Flags: W
LayerCount: 2
Fore
SplineSet
1132 599 m 128,-1,1
 1132 493 1132 493 1218 493 c 0,2,3
 1264 493 1264 493 1287 545 c 1,4,-1
 1362 507 l 1,5,6
 1306 413 1306 413 1214 413 c 128,-1,7
 1122 413 1122 413 1074 463 c 128,-1,8
 1026 513 1026 513 1025 599 c 0,9,10
 1024 686 1024 686 1074 736 c 128,-1,11
 1124 786 1124 786 1201 786 c 0,12,13
 1312 786 1312 786 1360 699 c 1,14,-1
 1280 657 l 1,15,16
 1259 705 1259 705 1213 705 c 0,17,0
 1132 705 1132 705 1132 599 c 128,-1,1
1021 1091 m 0,18,19
 890 1090 890 1090 776 1024 c 128,-1,20
 662 958 662 958 596 844 c 0,21,22
 528 730 528 730 528 600 c 0,23,24
 528 469 528 469 596 356 c 0,25,26
 664 242 664 242 777 176 c 0,27,28
 891 110 891 110 1018 110 c 0,29,30
 1146 110 1146 110 1258 171 c 128,-1,31
 1370 232 1370 232 1436 332 c 128,-1,32
 1502 432 1502 432 1510 557 c 0,33,34
 1528 788 1528 788 1377 939 c 0,35,36
 1225 1091 1225 1091 1021 1091 c 0,18,19
786 599 m 128,-1,38
 786 493 786 493 872 493 c 0,39,40
 918 493 918 493 941 545 c 1,41,-1
 1015 507 l 1,42,43
 963 413 963 413 857 413 c 0,44,45
 776 413 776 413 727 462 c 128,-1,46
 678 511 678 511 678 598 c 0,47,48
 678 686 678 686 728 736 c 128,-1,49
 778 786 778 786 854 786 c 0,50,51
 964 786 964 786 1014 699 c 1,52,-1
 933 657 l 1,53,54
 912 705 912 705 867 705 c 0,55,37
 786 705 786 705 786 599 c 128,-1,38
1020 1200 m 0,56,57
 1141 1200 1141 1200 1252 1152 c 128,-1,58
 1363 1104 1363 1104 1444 1025 c 0,59,60
 1524 946 1524 946 1572 834 c 128,-1,61
 1620 722 1620 722 1620 580 c 128,-1,62
 1620 438 1620 438 1539 300 c 128,-1,63
 1458 162 1458 162 1320 81 c 128,-1,64
 1182 0 1182 0 1020 0 c 0,65,66
 859 0 859 0 721 82 c 0,67,68
 584 164 584 164 502 302 c 128,-1,69
 420 440 420 440 420 580 c 128,-1,70
 420 720 420 720 468 831 c 128,-1,71
 516 942 516 942 597 1023 c 128,-1,72
 678 1104 678 1104 788 1152 c 128,-1,73
 898 1200 898 1200 1020 1200 c 0,56,57
EndSplineSet
EndChar
